<svg id="Capa_1" data-name="Capa 1" xmlns="http://www.w3.org/2000/svg" viewBox="0 0 112.62 168.07"><defs><style>.cls-1,.cls-5{fill:#f07c00;}.cls-2{fill:#fff;}.cls-2,.cls-3,.cls-5{fill-rule:evenodd;}.cls-3,.cls-4{fill:#0b6ba5;}</style></defs><title>icon</title><ellipse class="cls-1" cx="56.31" cy="84.04" rx="56.31" ry="84.04"/><path class="cls-2" d="M32.65,70.7c4.09-30.46,20.87-53.29,40.81-53.29,23.07,0,41.75,30.33,41.75,67.76s-18.7,67.75-41.75,67.75S31.71,122.59,31.71,85.17a107.76,107.76,0,0,1,.95-14.47" transform="translate(-17.2 -1.19)"/><path class="cls-3" d="M97.86,119.92s.59-.42.67-.75,1-.38,1.33.19a1.62,1.62,0,0,0,1.23,1,1.19,1.19,0,0,1,1,.48,5.4,5.4,0,0,0,1.82.63c.16,0,1.23,1.8.74,2.45s0,1-.87,1.12-1.23.44-1.75.42-.75.17-1-.42-.19-.89-.46-1-.37-.34-.65-.1-.1.43-.47.41a2,2,0,0,1-.84-.35s-.69-.37-.49-.64.3-.35.23-.55a.94.94,0,0,0-.5-.48.77.77,0,0,1-.68-.85.61.61,0,0,1,.06-.24,3.57,3.57,0,0,0,0-.8C97.28,120.05,97.86,119.92,97.86,119.92Z" transform="translate(-17.2 -1.19)"/><path class="cls-2" d="M112,121.43l9,3.32-.45,1.23-8-2.93-1.7,4.67-1.07-.39Zm1.14-3.38,9.26,2.69-.37,1.23-9.26-2.69Zm1.67-6.62,10.24-1.82-.3,1.43-7.37,1.1c-.61.09-1.17.15-1.66.19.48.26,1,.55,1.44.86l6.27,4.15-.28,1.34-8.59-5.91ZM116.3,105l9.46,1.86-.26,1.31L116,106.34Zm3.83-2.74-.45,1.3a4.06,4.06,0,0,1-2.78-4.51,5,5,0,0,1,.91-2.58,4,4,0,0,1,2-1.35,6.33,6.33,0,0,1,2.63-.26,5.36,5.36,0,0,1,2.54.87,4.26,4.26,0,0,1,1.52,1.89,5.29,5.29,0,0,1,.32,2.46,4.39,4.39,0,0,1-1,2.45,3.86,3.86,0,0,1-2.21,1.23l-.16-1.34a2.89,2.89,0,0,0,1.63-.86,2.74,2.74,0,0,0,.65-1.62,3.51,3.51,0,0,0-.33-2,2.9,2.9,0,0,0-1.3-1.22,5.69,5.69,0,0,0-1.81-.51,5.89,5.89,0,0,0-2.17.14,2.66,2.66,0,0,0-1.49,1,3.33,3.33,0,0,0-.66,1.68,3,3,0,0,0,.41,2,3.08,3.08,0,0,0,1.75,1.23Zm1.53-18.41v3.42l2.65-1.1c.8-.34,1.46-.59,2-.75a12,12,0,0,1-1.84-.52Zm-4-2.87,9.7,3.69v1.45l-9.56,4.31V88.92l2.9-1.22-.08-4.24-2.93-1.07ZM120,72l.21,1.23a2.37,2.37,0,0,0-1.15.52,2.16,2.16,0,0,0-.66,1.08,3.78,3.78,0,0,0-.15,1.57,3.35,3.35,0,0,0,.34,1.32,1.74,1.74,0,0,0,.7.84,1.24,1.24,0,0,0,.84.22,1.21,1.21,0,0,0,.76-.36,2,2,0,0,0,.5-1c.07-.29.18-.89.31-1.83a9.11,9.11,0,0,1,.43-2,2.79,2.79,0,0,1,.8-1.15,2.13,2.13,0,0,1,1.23-.47,2.5,2.5,0,0,1,1.39.32,2.62,2.62,0,0,1,1,1.23,5.75,5.75,0,0,1,.31,3.83,2.91,2.91,0,0,1-.9,1.4,2.68,2.68,0,0,1-1.47.64l-.2-1.23a2,2,0,0,0,1.32-.82,2.93,2.93,0,0,0,.31-1.79,3.11,3.11,0,0,0-.59-1.81,1.3,1.3,0,0,0-1.07-.46,1.11,1.11,0,0,0-.83.47,5.55,5.55,0,0,0-.56,2.07,17.74,17.74,0,0,1-.42,2.29,3,3,0,0,1-.81,1.38,2.22,2.22,0,0,1-1.32.54,2.5,2.5,0,0,1-1.51-.37,2.81,2.81,0,0,1-1.23-1.23,4.48,4.48,0,0,1-.54-1.9,5.91,5.91,0,0,1,.17-2.33,3.07,3.07,0,0,1,1-1.55A3,3,0,0,1,120,72Zm-4.66-9.4,9.47-1.86.26,1.34-6.42,6.68L126,67.29l.25,1.23-9.43,1.89-.26-1.34,6.4-6.58L115.6,64ZM113,53.5l9.3-2.53L124.11,58l-1.09.3-1.52-5.71-2.85.77,1.43,5.37-1.09.29-1.44-5.4-3.16.86,1.59,6-1.1.3Zm-3.09-8,8.94-3.69,2.53,6.34-1.06.43-2-5.08-2.72,1.16,1.75,4.46-1,.43-1.85-4.42-4.05,1.66Zm-4.18-8.39,8.43-4.73,3.48,6.41-1,.56-2.86-5.23-2.58,1.49,2.68,4.91-1,.56-2.69-4.91-2.86,1.6,3,5.43-1,.57Zm-3.84-8,1.23,1.77a5.06,5.06,0,0,0,1,1.22,2.05,2.05,0,0,0,.92.46,3,3,0,0,0,1.43-.1,5.64,5.64,0,0,0,1.67-.86,4.51,4.51,0,0,0,1.61-1.77,2.73,2.73,0,0,0,.17-1.67,6,6,0,0,0-.83-1.53l-1.22-1.75Zm-1.69-.44L108,23l2,2.86a10.48,10.48,0,0,1,.91,1.55,4.06,4.06,0,0,1,.27,1.62,4.21,4.21,0,0,1-.67,1.94,6,6,0,0,1-1.65,1.64,6.21,6.21,0,0,1-1.75.91,4.42,4.42,0,0,1-1.53.25,3.27,3.27,0,0,1-2.37-1,5.94,5.94,0,0,1-1.06-1.23Zm-9.64-9.15L96.66,12l5.53,4.71-.72.88L97,13.72,95.08,16l4.24,3.61-.72.87-4.25-3.59-2.08,2.52,4.71,4-.73.88Zm-7.46-5.1,2,.81a5,5,0,0,0,1.51.42,2.2,2.2,0,0,0,1-.12,3.12,3.12,0,0,0,1.13-.87,6,6,0,0,0,1-1.64,4.81,4.81,0,0,0,.39-2.37,2.67,2.67,0,0,0-.76-1.49,5.6,5.6,0,0,0-1.51-.84l-2-.8Zm-1.64.57,3.61-9L88.2,7.23a9.47,9.47,0,0,1,1.59.8A3.64,3.64,0,0,1,90.9,9.26a4.08,4.08,0,0,1,.48,2,6.44,6.44,0,0,1-.49,2.29,7.18,7.18,0,0,1-1,1.73,5.15,5.15,0,0,1-1.23,1,3.69,3.69,0,0,1-1.23.47,4.23,4.23,0,0,1-1.23,0,6.65,6.65,0,0,1-1.56-.46ZM70.29,13.8l-.21-9.73H71.4l.15,8.59,4.91-.08v1.15ZM61.86,12l3.2-1.05L63.25,8.68A10.64,10.64,0,0,1,62,7a12.56,12.56,0,0,1,0,1.94Zm-1.6,4.71L61,6.21l1.35-.44,6.88,8-1.46.47-2-2.46-4,1.31-.17,3.15ZM52.81,22l-5.26-8.18L48.7,13l8.59,3.53-4.13-6.41,1.05-.7,5.24,8.16-1.13.75-8.59-3.52,4.11,6.42ZM42.62,26.33a3.66,3.66,0,0,0,2.71,1.08,3.32,3.32,0,0,0,2.36-1.23,3.41,3.41,0,0,0,.85-2.55A4,4,0,0,0,47,21a4.75,4.75,0,0,0-1.82-1,3.1,3.1,0,0,0-1.81,0,3.31,3.31,0,0,0-1.54,1A3.49,3.49,0,0,0,41,23.43a4,4,0,0,0,1.67,2.87Zm-.91,1a5.17,5.17,0,0,1-2-3.51A4.7,4.7,0,0,1,41,20.31a4.76,4.76,0,0,1,2.09-1.51,4.21,4.21,0,0,1,2.46-.11,6,6,0,0,1,3.9,3.46,4.31,4.31,0,0,1,.19,2.46,5.2,5.2,0,0,1-1.11,2.27,4.78,4.78,0,0,1-2.15,1.5,4.35,4.35,0,0,1-2.45.1,5.23,5.23,0,0,1-2.2-1.15Zm1.79,6-7.8-5.74.78-1.08,7.82,5.72Zm-4.81,1.11.91-1a4.11,4.11,0,0,1,.89,5.23,5.14,5.14,0,0,1-1.79,2.05,4,4,0,0,1-2.34.5,6.23,6.23,0,0,1-2.53-.78,5.56,5.56,0,0,1-2-1.78,3.84,3.84,0,0,1-.7-2.34,5.23,5.23,0,0,1,.61-2.45,4.35,4.35,0,0,1,1.84-1.93A3.73,3.73,0,0,1,36,31.61L35.7,33a2.91,2.91,0,0,0-1.82.17,2.62,2.62,0,0,0-1.23,1.23,3.28,3.28,0,0,0-.44,2A2.69,2.69,0,0,0,33,38a5.4,5.4,0,0,0,1.51,1.12,5.51,5.51,0,0,0,2.06.68,2.77,2.77,0,0,0,1.71-.36,3.42,3.42,0,0,0,1.22-1.31,3.07,3.07,0,0,0,.34-2,3.37,3.37,0,0,0-1.23-1.8ZM31.84,47.93l1.22-3.21h-5a12.8,12.8,0,0,1,1.57,1.17Zm2.64,4.13-7.62-7.12.51-1.35,10.47-.37-.54,1.43H34.16l-1.51,3.94L35,50.69Zm-2.54,8.73-9.31-2.45L23,57l8.6-3.15-7.29-2,.31-1.23,9.31,2.46-.34,1.32L25,57.52l7.37,2ZM26.1,70.86l.53-3.36-2.79.62c-.86.19-1.54.32-2.08.4a14.37,14.37,0,0,1,1.73.82Zm3.47,3.51L20.66,69l.22-1.43L31,65l-.25,1.51-3.07.7-.61,4.19L29.82,73ZM29,85l-9.61-.52.1-2,6.93-2,1.45-.4-1.51-.63-6.54-2.77.08-1.78,9.62.5V76.6l-8.06-.42,7.9,3.35-.06,1.23L21,83.21l8.19.45Zm.36,9.32-9.63.5-.38-7.37H20.5l.31,6,3-.15-.33-5.6h1.13l.34,5.5L28.18,93l-.33-6.21H29Zm.64,6.14-8.45.89.34,3.32-1.13.12L20,96.87l1.13-.12.35,3.32,8.44-.89ZM29,113.27,28.63,112a2.51,2.51,0,0,0,1.09-.61,2.43,2.43,0,0,0,.57-1.13,4.2,4.2,0,0,0,0-1.58,4.11,4.11,0,0,0-.44-1.23,1.93,1.93,0,0,0-.74-.76,1.23,1.23,0,0,0-.86-.14,1.28,1.28,0,0,0-.74.41,1.93,1.93,0,0,0-.4,1,13,13,0,0,0-.16,1.87,9.8,9.8,0,0,1-.26,2,2.66,2.66,0,0,1-.7,1.23,2,2,0,0,1-1.12.55,2.3,2.3,0,0,1-1.36-.24,2.69,2.69,0,0,1-1.23-1.08,5,5,0,0,1-.65-1.78,5.71,5.71,0,0,1,0-2,2.89,2.89,0,0,1,.78-1.47,2.71,2.71,0,0,1,1.41-.76l.31,1.23a1.88,1.88,0,0,0-1.23.93,2.72,2.72,0,0,0-.16,1.82,2.9,2.9,0,0,0,.72,1.67,1.27,1.27,0,0,0,1.1.37,1.12,1.12,0,0,0,.77-.55,5.4,5.4,0,0,0,.33-2.11,13.86,13.86,0,0,1,.27-2.23,3,3,0,0,1,.75-1.46,2.24,2.24,0,0,1,1.23-.65,2.57,2.57,0,0,1,1.5.19,3.16,3.16,0,0,1,1.22,1.13,4.84,4.84,0,0,1,.7,1.86,6.09,6.09,0,0,1,0,2.33,3.3,3.3,0,0,1-.88,1.63,3,3,0,0,1-1.44.85Zm4.14,2.46-9.36,2.36-.3-1.23,9.35-2.36Zm.16,10.73-.5-1.15a3,3,0,0,0,1-.79,2.54,2.54,0,0,0,.38-1.23,4.35,4.35,0,0,0-.23-1.56,4.12,4.12,0,0,0-.64-1.23,2,2,0,0,0-.84-.63,1.44,1.44,0,0,0-.87,0,1.22,1.22,0,0,0-.66.52,2,2,0,0,0-.25,1,14.42,14.42,0,0,0,.14,1.86,11.6,11.6,0,0,1,.06,2,2.69,2.69,0,0,1-.51,1.33,2.22,2.22,0,0,1-1,.72,2.33,2.33,0,0,1-1.43,0,2.72,2.72,0,0,1-1.33-.88,5,5,0,0,1-.9-1.65,5.16,5.16,0,0,1-.31-2,2.75,2.75,0,0,1,1.78-2.45l.5,1.23a1.93,1.93,0,0,0-1.08,1.11,3.69,3.69,0,0,0,1.11,3.37,1.2,1.2,0,0,0,1.14.18,1.06,1.06,0,0,0,.67-.65,5.45,5.45,0,0,0,0-2.13,14,14,0,0,1-.13-2.33,3,3,0,0,1,.5-1.55,2.52,2.52,0,0,1,2.74-.85,2.9,2.9,0,0,1,1.44.91,4.9,4.9,0,0,1,1,1.72,6.16,6.16,0,0,1,.38,2.29,3.39,3.39,0,0,1-.61,1.76,3.32,3.32,0,0,1-1.5,1Z" transform="translate(-17.2 -1.19)"/><path class="cls-2" d="M54.66,156.67l2.53.94a2.8,2.8,0,0,0,2,.2,1.81,1.81,0,0,0,1-1.12,1.85,1.85,0,0,0,0-1.23,1.59,1.59,0,0,0-.61-.87,5.61,5.61,0,0,0-1.23-.54l-2.46-.93Zm-3.14,4.64L55,151.48l3.68,1.38a11.27,11.27,0,0,1,1.47.64,3.35,3.35,0,0,1,1,.91,2.66,2.66,0,0,1,.45,1.22,3.51,3.51,0,0,1-.18,1.44,3.19,3.19,0,0,1-1.56,1.82,4.09,4.09,0,0,1-3.18-.21l-2.46-.93-1.42,4Z" transform="translate(-17.2 -1.19)"/><polygon class="cls-2" points="45.08 164.09 47.42 154 55.61 155.74 55.34 156.95 48.65 155.51 47.92 158.6 54.2 159.94 53.92 161.13 47.65 159.78 46.85 163.22 53.8 164.72 53.52 165.91 45.08 164.09"/><path class="cls-2" d="M74.74,161.1l3-.42a4.49,4.49,0,0,0,1.43-.4,1.61,1.61,0,0,0,.73-.73,1.88,1.88,0,0,0,.13-1,1.5,1.5,0,0,0-.7-1.12,2.59,2.59,0,0,0-1.75-.22l-3.28.47ZM74.2,167l-1.49-10.27,4.59-.65a6.47,6.47,0,0,1,2.15,0,2.41,2.41,0,0,1,1.23.81,2.87,2.87,0,0,1,.65,1.49,2.67,2.67,0,0,1-.44,1.94,3.85,3.85,0,0,1-2.06,1.23,3.74,3.74,0,0,1,.89.4,7.26,7.26,0,0,1,1.42,1.23l2.21,2.54-1.74.25-1.7-1.93a8.94,8.94,0,0,0-1.23-1.23,3.09,3.09,0,0,0-.8-.58,1.66,1.66,0,0,0-.66-.18,4.9,4.9,0,0,0-.77.06l-1.59.22.66,4.56Z" transform="translate(-17.2 -1.19)"/><path class="cls-2" d="M85.37,152.82l.27-2.18,1.76-.54-.92,2.38Zm4-.54,1.44-.44L93,157.55a6.69,6.69,0,0,1,.52,2.46,3,3,0,0,1-.8,1.84,5,5,0,0,1-2.33,1.32,6,6,0,0,1-2.68.29,3.36,3.36,0,0,1-1.92-1,6.72,6.72,0,0,1-1.36-2.36l-2.16-5.68,1.44-.45,2.16,5.71a5.94,5.94,0,0,0,1,1.82,2.19,2.19,0,0,0,1.23.66,3.58,3.58,0,0,0,1.69-.14,3.17,3.17,0,0,0,2-1.35,3.77,3.77,0,0,0-.28-2.72Z" transform="translate(-17.2 -1.19)"/><path class="cls-4" d="M94.91,138.09l-2.18-5.82v-2.15L60,77.7l-5.86-9.47L40.33,50.77s5.1-3.68,6.55-6.54S46.15,42,46.15,42H43.24a2,2,0,0,0-.79-1.73A2.27,2.27,0,0,1,41.3,42a7.91,7.91,0,0,1-1.22,2.81,2.41,2.41,0,0,1-.69,1.72c-.63.68-.62,2.32-.89,3.2-.44,1.45-.89,2.87-1.22,4.33a80.39,80.39,0,0,0-2.46,8.43c-.34,2.25-.53,5.35-2,7.18a3.41,3.41,0,0,1-.1.54,3.2,3.2,0,0,1-.1.42v.16A24.15,24.15,0,0,1,36,72.57C36,76.93,41,82.76,41,82.76v3.68l2.19,2.19c0,2.17,2.18,7.27,2.18,7.27l.72,2.2,2.18,2.18a29.12,29.12,0,0,0,1.46,5.1,42.38,42.38,0,0,0,2.91,4.36l.73,2.91h-.73v2.18h.73V117c0,.72,2.91,2.17,2.91,2.17a18.79,18.79,0,0,0,2.91,3.68h2.23v1.45l5.82,4.37,3.69.73.72,1.46c0,.72,4.37,2.91,4.37,2.91v2.91l8,4.36h0a6.62,6.62,0,0,1,4,1.84,5.6,5.6,0,0,1,1.61,3.24,1.81,1.81,0,0,1-.93,2h.16a.76.76,0,0,1,.23-.15,9.58,9.58,0,0,1,3.11-2.58h.09v-.07c.13-.23.25-.47.39-.7h0l.07-.22.07-.31v.12a2,2,0,0,0,0-.78,2.47,2.47,0,0,1,2.35-2.35,2,2,0,0,1,.8,0,2.57,2.57,0,0,1,.77.15h.12a1,1,0,0,1,.13-.16Z" transform="translate(-17.2 -1.19)"/><path class="cls-5" d="M71.58,28.86v.73a.83.83,0,0,0,.59.68h.17c.27,0,.23.21.32.45s.2.19.4.22v.11c.08.24.24.27.44.37-.08.25,0,.17,0,.26-.1.43,0,0-.12.25a1.06,1.06,0,0,0,0,.66.22.22,0,0,0,0,.16h0a7.76,7.76,0,0,1,.2,1.07l-.78-.22a2.74,2.74,0,0,0-.3.75,15.42,15.42,0,0,1-1,2.56h0a2.94,2.94,0,0,0-.62.6L70.5,38l-.21.25a6,6,0,0,1-.38.47,8,8,0,0,1-1.83,1.94l-1.41,1.05a5.18,5.18,0,0,1-2.22,1.23l-3.21,1H61.1l-.84.45h-.1a7.47,7.47,0,0,0-1.58.51l-1.49,1.22a.39.39,0,0,1-.08.41,2.46,2.46,0,0,1-.48.37l.39.73c-.16.32,0,.11-.37.18l-.2.07v-.6L56,47.14c-.23.4-.33.09-.38,1.23a3.5,3.5,0,0,1-.17.71c-.14.52,0,.28-.3.6a2.24,2.24,0,0,0-.66,1l-.27,1.46c-.79.35.17,1-.81,2-.3.32-.75.23-1,.57a2.08,2.08,0,0,0-.26.59c0,.08-.23.4-.45.91L50.32,56c-.16-.51-.1-.21-.35-.5h0c-.22-.27-.29-.15-.37-.53,0-.17-.29-.87-.29-1v-.42c-.59-.31-.11.12-1-.63-.16.25-.63.25-.9.3l-.07-.2c-.22-.53-.42-.29-.72-.43s.22-.17-1.06-.58c-.1.41-.85.89-1.23,1.07L44.08,53a.94.94,0,0,1,.32-.83h.06a1.92,1.92,0,0,0,.36-.56c-.77,0-.66.15-.8-.48a.58.58,0,0,1,.17-.61.65.65,0,0,1,.45.11.28.28,0,0,0,.21.07h0c.47,0,0-.13.8-.51a12.06,12.06,0,0,0,0-1.59,5.85,5.85,0,0,1-.11-1.39L45,47c-.2.61-.56.48-1.08.48a1.34,1.34,0,0,1-.66.86l-.54.29-.16.09c-.49.31-.37.7-.7,1s-.46.26-.63.44-.21.48-.45.69l-1.16,1A3.87,3.87,0,0,0,39.44,53c.12.78-.19.54-.22,1.23l.07.09a4.51,4.51,0,0,1,.49.66c.17.26.36.57.54.8s.22.2.2.39c0,.44-.2.22-.42.23s-.15.23-.38.77c.06.17.07.11.18.23l.08.07a1.45,1.45,0,0,0,.34.4,1.45,1.45,0,0,1,.39.3l.09.11a4.59,4.59,0,0,1,.36.41c.08.15.16.29.23.45a1.56,1.56,0,0,1-.27,1.71,1.58,1.58,0,0,1-.85-.36c0,.36-.07.15-.24.34a1.21,1.21,0,0,0,.5,1.65h0c.81.53,1.13,1,1.44,1.14l2.88,1.65c1.67,1.23,1,1.33,1.43,1.76.11.11,0,0,.17.13l.59.68.1.09c.44.51.18.66.45,1a1,1,0,0,1,.32.66v.25c0,.13,0,0-.07.19a4.85,4.85,0,0,0,.76,1.44l-.2.18c.12.4.3.39.46.85a5.72,5.72,0,0,0,1,1.23c.22.21.17.27.36.45l.45.46c.13.17.39.77.56,1.07-.1.22-.18.1-.2.3s.09.2.41.48c.76.65.56.74.4,1.56.48.63.58.57.56,1.08l-.1.09a.66.66,0,0,0-.11.35h.24a.83.83,0,0,0,.09.54h0c.07.2.07-.07.16-.19l.12.12c-.08.19-.15.17-.32.25.06.33.06.13.11.23l.1.31.26-.17a.44.44,0,0,1,.34-.2c-.13.51-.11,0-.18.32s.18.46.29.6a1.89,1.89,0,0,1,.24.47l.07.52h0c0,.18.1.14.11.4a.35.35,0,0,0,.07.28l.56.79a1.7,1.7,0,0,0,0,.71c0,.48,0,.11.19.6.09.27,0,.6.15.86s.14,0,.28.39,0,0,0,.15c.15.38.34.63.41.83s.44.88.48,1l.1.28a4.75,4.75,0,0,0,.47.78l.08.1a2,2,0,0,0,.24.52v.07c.54,1.12,0,.2.34,1.23l.19.53c-.15.65,0,0-.27.32a.65.65,0,0,0,0,.39c0,.27.65.49.87.66a2.94,2.94,0,0,0,.32.25l.43.33h0c.24.18.16.25.28.54s.1.1.28.31l.07.16h0c.18.54-.14.41,0,.89.08.27.33.56.22.89l-.2.38c0,.35,0,.08.11.17a1.64,1.64,0,0,1,.54.32l-.08.45c.27,0,.72.19.73.48v.35c.1,0,.14-.11.21-.32v.06l.36.48a5.8,5.8,0,0,1-.17.72,1.08,1.08,0,0,1,.62.62l.18.46a1.41,1.41,0,0,1,0,.41c0,.37,0,.08.23.18s.11,0,.18.15c.41.42.1,1,.4,1.42.09.14.12,0,.27.3a2,2,0,0,0,.22.37l.23.32a2.19,2.19,0,0,1,.42,2.45,2.93,2.93,0,0,1-.27.77h0l-.09.12c0-.25.17-.35-.18-.34s-.32.08-.37.31-.1.37.12.55h.27a.77.77,0,0,1,0,.37,3.83,3.83,0,0,0,0,1.35l.21-.32.53.42a1.11,1.11,0,0,1-.16.59c.1.1.09.17.23.26s.37.33.6.5c0,.52,0,.31.16.59s0,.34.26.61l.14.12h0v.07h0l.53.38c.12.1.08.09.19.18s.71.31.92.61,0-.08,0,.22.32.43.56.92,0,0,.82.62l-.26.13c.1.29.27.33.53.47l-.2.2v.2a4.38,4.38,0,0,1,1,.54,1.92,1.92,0,0,1,.76.65h.37c.11.16.26.17.42.28a5.19,5.19,0,0,0,.77.42l.44.16a.61.61,0,0,0,.37.69c.25.13.32,0,.54.11s.17.17.41.25a4.69,4.69,0,0,1,1,.63.41.41,0,0,0,.09.26,1.61,1.61,0,0,0,.43.35,2.4,2.4,0,0,0,.68.46c.24.11.08,0,.22.16l.17.23c.11-.15.44,0,.58,0l.36.21.38.12c.72.24.57.63.72.68h.51a2.66,2.66,0,0,0,1.08.7c1,.18.36.66,1.82.93a2.32,2.32,0,0,1,1.23.66l.17.24c.28.56.26.34.68.76.12.12.14.09.22.2s-.08-.3,0,.12v.24c.28-.36,1,.38,1.13.59s.16.32.45.4l.37.08,1,.43c.19.11.11,0,.22.24l.1.14.1.15c.26.32.23.17.26.6l.09.82c0,.23-.18.39-.28.59a1.51,1.51,0,0,1,1.07.59c.34.36.44.45.75.53h.11c.38.14.43.38.63.74l.29.18a10,10,0,0,0,.85.87,11.88,11.88,0,0,1,1.23,1l.22-.13c.24-.12.68,0,1,0s.29-.11.51-.2.52,0,.79-.24a5.73,5.73,0,0,0,.56-.54l.13-.21a2.7,2.7,0,0,0,.36-.9c-.09-.26-.09,0-.16-.33s.08-.47,0-.64-.12.07,0-.63c.56,0,.5.27,1-.11s.79-.46.83-1,0-.6-.69-1a.62.62,0,0,1,.18-.36l.17-.16h0l.18-.12c.28-.17.46,0,.68-.27s.11-.15.14-.42,0-.07.21-.22.22-.37.42-.55l.17-.16.79.23c.21-.22.13-.45.4-.54l.74-.22c0-.31-.11-.39-.07-.71.11-1,.78-.63,1.22-1.3-.07-.21-.23-.26-.35-.41a2.32,2.32,0,0,0-.46-.48.78.78,0,0,1-.9,0c-.25-.17-.4-.22-.45-.54a2,2,0,0,1,0-.49,13,13,0,0,1-.49-2.29,5.41,5.41,0,0,1,.42-.79c.09-.18.11-.12.25-.31s0-.23.2-.39l.14-.1c.49-.44,0,0,.59-.44,0-.2-.12-.27-.23-.41-.58-.73-.25.11-.9-1.36a2,2,0,0,0,.17-.86l.63-.17a2.62,2.62,0,0,1,0-.79l.51-.11v-.52c.41-.08.2-.15.43-.34s.16,0,.3-.12a.57.57,0,0,0,.24-.31s-.24-.55,0-.67l.78-.15a3.47,3.47,0,0,0-.14-.77l-.42-.51a2.62,2.62,0,0,0,0-.79,1,1,0,0,1,0-.59.94.94,0,0,1-.39-.62h.07c.52-.07.1,0,.32-.37s.22-.15.34-1c0-.28.08-.57.11-.87a4.71,4.71,0,0,1,0-.92c.12-1,0-.27,0-.71a1.26,1.26,0,0,1,.17-.78l.64-.62h.23c.44,0,.4-.11.23-.7l.22-.16c.34-.38.24-.55,0-1-.32-.78-.54-1.62-.88-2.45a18.07,18.07,0,0,0-.8-1.73l-2.11-4.4h-.93a1.19,1.19,0,0,0-1.16-.31,3.21,3.21,0,0,0-1,.45,1.56,1.56,0,0,1-.64.13,1,1,0,0,1-.72,0c-.11,0-.12,0-.28-.23a2.49,2.49,0,0,0-.44-.42l-.4.32a8.2,8.2,0,0,1,0-2c0-.72.14-1.23.17-1.91a15.84,15.84,0,0,1,.25-2.83c.21-.24.7-.24.42-.8l-.11-.4h0a5.58,5.58,0,0,0,.43-.93c-.59,0-.48-.08-.92.39-.19.2-.47.28-.64.49s-.48.26-.7.53a3.36,3.36,0,0,1-.65.6l-.57.2c-.15,0-.16,0-.24.16l-.21.33a1.36,1.36,0,0,1-.85.24h-.26l-4.07-.21c0-1,.45-.57-.42-1.33a3.72,3.72,0,0,0,.08-.67l-.17-.67c0,.06-.39-.28-.43-.3-.32-.16-.77-.08-1-.23s-.44-.13-.66-.18h0a11.58,11.58,0,0,0-2.56-.19c.08-.28.15-.17.35-.37s0,0,.11-.17l.52-.42c.23-.52,0-.08.29-.44a1,1,0,0,0,0-1.23l-.42-.25c0-.4-.16-.42-.26-.72-.26-.72,0-.35-.66-.61-.16-.07-.28-.29-.38-.44s-.12.19,0-.8c-.49-.22-.25-.22-.48-.38l-.54-.26c0-1-.25-.4-.23-1.23s-.74-1.08-.79-1.22L79,73.91h.43c.21-.83-.25-.58-.61-1L78,72c.28-.32.47,0,.25-1,.48.28.24,0,.81,0l.64-.17a2.77,2.77,0,0,0-.24-.79l-.25-.49.27-.92c.07-.21.07-.26.23-.39s.18-.25.42-.41l.16-.12c.14-.14,0,0,.14-.18s.2,0,.65-.41l.19-.13c1-.73,1-.31,1.36-.67h0l.12-.15c.35-.52.24-.46.19-.79l-.15-1.12c-.07-.71.17-.54.31-1.09a.67.67,0,0,1,0-.2l.07-.18c.21-.42-.26.22.16-.21h0l.16-.16A2.38,2.38,0,0,0,84.14,61c0-.18.1,0,0-.34v-.19c0-.07.4-1.05.47-1.29a1,1,0,0,0,0-.6l.16-.07a2.55,2.55,0,0,1,1.36-.26.52.52,0,0,1,.14-.33.87.87,0,0,1,.7-.16c.16-.63.13-.1.42-.53.08-.13,0-.23.16-.36h0c.19-.17.41,0,.88-.29l.59-.36a1.52,1.52,0,0,1,.56-.3c.45-.14.3-.3.61-.52s1.22,0,1.3,0c.56,0,.21,0,.46-.2a2.49,2.49,0,0,0,.43-.22l.19.14.26-.19.24.15c.34,0,.37,0,.52-.38l.23.21a1.68,1.68,0,0,1,.66-.12h.9l.11-.24h0l.13-.13.13-.12.1-.1c.17-.21.25-.67.55-.54h0l.22.21a.58.58,0,0,0,.17-.18V53.6l.48.28.21-.38v.33h.11a1.66,1.66,0,0,0,.42-.29.83.83,0,0,0,.67.22c0,.35-.13.33-.1.59v.19a.69.69,0,0,1,.53.42.52.52,0,0,0,.28-.51l.26.08a1.22,1.22,0,0,1,.27.33c.42,0,.48-.27.67-.62-.1-.29-.3-.4-.43-.67a1,1,0,0,0-.62-.57c-.27-.91.39-.48-1.1-1.37-.42.18,0,.18-.89.36-.22-.23.08-.16-.4-.28l-.37-.36v-.07c.31-.4.59-.81.86-1.23a50.9,50.9,0,0,0,3-4.33l-.13-.12a1,1,0,0,1,0-.41l-.23-.15a.21.21,0,0,1-.08.16l-.19.16V45h-.32c0-.69-.28-.46-.43-.78s-.59,0-.7,0a.78.78,0,0,0-.1-.39c-.45,0,0,.12-.73-.23l-.15.39v-.53h-.26l.09-.32a1,1,0,0,1-.49-.23l-.42-.14v-.4a.4.4,0,0,0-.37,0H96l-.49.23c-.53-.4-.71.15-1,.42-.08-.2,0-.12-.35-.15s-.2,0-.4.14-.14.14-.24,0,.07,0-.19-.36-1.09-.51-1.54-.61c0-.81-.06-.35-.74-.16a2.63,2.63,0,0,1-.22.59h-.27a1.14,1.14,0,0,1-.11.11c-.11.11-.38-.09-.55-.19a.71.71,0,0,1-.38.48c-.36.21-.51,0-.77.08l-.45.3c-.07-.08-.1-.29-.17-.34s0,0-.27,0a3.48,3.48,0,0,1-1.23-.27c0,.15,0,.31-.14.23-.5-.22-.73,0-1.22.17l-.29-.6h-.24l-.2-.1h-.35c0-.38-.09-.36-.21-.66.33,0,.13,0,.28-.26a.41.41,0,0,1,.53-.21h0l.17-.13h0l-.17-.25h0v-.14c-.16-.46.17-.27-.13-1.37a2.44,2.44,0,0,1-.55-.35l-.73.18-.75-.31c0-.49.13-.55.37-.9h0c0,.14-.1-.38-.19-.49h0a3.29,3.29,0,0,1-.24-1h-.42v-.4a1.44,1.44,0,0,1-.55-.08.35.35,0,0,0-.24-.29V36l-.19-.25-.21-.1c-.11-.1-.14-.4-.17-.55-.3-.07-.17,0-.32-.19s.18-.08-.11-.08,0,0-.19.11v-.53c-.23,0-.27.12-.44.25a1.14,1.14,0,0,0-.42-.26l-.36-.11c0-.27.12-.73,0-1h0l-.24-.17h0a1,1,0,0,0-.4-.32l.14-.38a1.22,1.22,0,0,1-.17-.55,1.45,1.45,0,0,0-.1-.41c-.08-.14,0-.12-.24-.19-.68-.29-.46-.57-.89-.84H77l-.72-.39-.43-.95c0,.27,0,.26-.27.24s-.61-.69-1.07-.85l-.69-.2-.45.54c-.24.15-.11,0-.35.07H72.9C72.63,29.1,72.32,28.89,71.58,28.86Z" transform="translate(-17.2 -1.19)"/><path class="cls-4" d="M32.65,70.83h0l.21-1.49L33,68.6l.11-.66.12-.76.12-.69.14-.78.16-.82.17-.88.16-.79.13-.62.15-.68.19-.78.15-.68.14-.56.18-.7.2-.75.18-.71.25-.85.23-.85.24-.76.24-.79.24-.76.66-2,.77-2.1.4-1,.45-1.14.26-.6.32-.75.35-.81.22-.49.45-1L40.8,43l.48-1,.53-1,.28-.54.16-.28.23.17-.23,1.23,1.23,1.78,3.2,1.16a11.86,11.86,0,0,1-1.61,2.36.63.63,0,0,1-.72.49.84.84,0,0,1-.66-.73v1.08L42,48.94l.23.29-.11.26a1,1,0,0,1-.17.18h0l-.16.09-.17.11-.16.14h0v.3l-.08.11h-.24l-1.37.23L38,58.37l1.46,10.06Z" transform="translate(-17.2 -1.19)"/><polygon class="cls-4" points="71.57 147.01 71.61 147.03 71.81 146.89 71.93 146.8 72.02 146.75 72.14 146.67 72.33 146.53 72.54 146.4 72.78 146.24 73.12 145.99 73.39 145.8 73.55 145.67 73.68 145.58 73.95 145.38 74.13 145.25 74.38 145.05 74.61 144.88 75 144.56 75.87 143.83 76.64 143.15 77.29 142.53 77.7 142.15 78.35 141.51 78.95 140.87 79.16 140.65 79.65 140.14 79.76 140 79.65 139.83 79.12 139.97 77.8 139.63 74.64 139.87 71.45 145.13 71.34 146.28 71.44 146.66 71.57 147.01"/><polygon class="cls-4" points="69.68 148.17 66.67 139.61 65.1 132.82 75.8 139.53 74.21 144.41 73.23 145.93 71.62 147.01 71.22 147.27 70.8 147.52 70.27 147.84 69.93 148.03 69.68 148.17"/></svg>