<svg id="Capa_1" data-name="Capa 1" xmlns="http://www.w3.org/2000/svg" viewBox="0 0 149.43 170.69"><defs><style>.cls-1,.cls-5{fill:#f07c00;}.cls-2{fill:#fff;}.cls-2,.cls-3,.cls-5{fill-rule:evenodd;}.cls-3,.cls-4,.cls-6{fill:#0b6ba5;}.cls-6{font-size:28.85px;font-family:Roboto-Bold, Roboto;font-weight:700;}.cls-7{letter-spacing:-0.09em;}</style></defs><ellipse class="cls-1" cx="74.72" cy="68.44" rx="45.86" ry="68.44"/><path class="cls-2" d="M41.44,56.61c3.33-24.81,17-43.4,33.24-43.4,18.79,0,34,24.7,34,55.18s-15.23,55.18-34,55.18-34-24.7-34-55.18a87.61,87.61,0,0,1,.77-11.78"/><path class="cls-3" d="M94.55,96.69s.48-.34.55-.61.84-.31,1.08.16a1.34,1.34,0,0,0,1,.78,1,1,0,0,1,.81.39,4.27,4.27,0,0,0,1.48.51c.13,0,1,1.47.6,2s0,.83-.71.91-1,.36-1.42.34-.61.14-.86-.34-.15-.72-.37-.83-.3-.28-.53-.08-.08.35-.38.33a1.68,1.68,0,0,1-.69-.28s-.56-.3-.4-.52.25-.29.19-.45a.75.75,0,0,0-.41-.39.63.63,0,0,1-.5-.89,3.53,3.53,0,0,0,0-.65C94.08,96.8,94.55,96.69,94.55,96.69Z"/><path class="cls-2" d="M106.1,97.92l7.37,2.71-.37,1-6.5-2.39-1.38,3.81-.87-.32Zm.93-2.75,7.54,2.19-.3,1-7.54-2.19Zm1.36-5.39,8.34-1.48-.25,1.16-6,.9q-.75.11-1.35.15c.39.21.78.45,1.17.7l5.11,3.38-.23,1.09-7-4.81Zm1.18-5.22,7.7,1.51-.21,1.07-7.7-1.51Zm3.12-2.23-.37,1.06a3.31,3.31,0,0,1-2.26-3.68,4,4,0,0,1,.74-2.1,3.25,3.25,0,0,1,1.62-1.1,5.17,5.17,0,0,1,2.14-.21,4.38,4.38,0,0,1,2.07.71,3.41,3.41,0,0,1,1.24,1.54,4.4,4.4,0,0,1,.26,2,3.58,3.58,0,0,1-.81,2,3.13,3.13,0,0,1-1.8,1l-.13-1.09a2.4,2.4,0,0,0,1.33-.7,2.27,2.27,0,0,0,.53-1.32,2.84,2.84,0,0,0-.27-1.62,2.33,2.33,0,0,0-1.06-1,4.48,4.48,0,0,0-1.47-.41,4.78,4.78,0,0,0-1.77.11,2.17,2.17,0,0,0-1.21.84,2.65,2.65,0,0,0-.54,1.37,2.41,2.41,0,0,0,.33,1.59,2.55,2.55,0,0,0,1.43,1Zm1.24-15v2.79l2.16-.9c.65-.27,1.19-.48,1.61-.61a9.52,9.52,0,0,1-1.5-.42ZM110.67,65l7.9,3v1.18l-7.79,3.51V71.45l2.36-1L113.08,67l-2.39-.87Zm1.91-7.34.17,1a1.93,1.93,0,0,0-.93.42,1.84,1.84,0,0,0-.54.88,3.08,3.08,0,0,0-.12,1.28,2.73,2.73,0,0,0,.27,1.08A1.47,1.47,0,0,0,112,63a1,1,0,0,0,.69.18,1,1,0,0,0,.62-.29,1.62,1.62,0,0,0,.4-.78c.06-.23.15-.72.26-1.49a7,7,0,0,1,.35-1.63,2.19,2.19,0,0,1,.65-.94,1.71,1.71,0,0,1,1-.38,2,2,0,0,1,1.13.26,2.16,2.16,0,0,1,.86,1,4.72,4.72,0,0,1,.25,3.12,2.39,2.39,0,0,1-.73,1.14,2.24,2.24,0,0,1-1.2.52l-.16-1a1.58,1.58,0,0,0,1.07-.67,2.32,2.32,0,0,0,.25-1.46,2.49,2.49,0,0,0-.48-1.47,1.06,1.06,0,0,0-.87-.38.9.9,0,0,0-.67.39,4.3,4.3,0,0,0-.46,1.68,14.65,14.65,0,0,1-.34,1.87,2.55,2.55,0,0,1-.66,1.12,1.84,1.84,0,0,1-1.08.44,2,2,0,0,1-1.23-.3,2.35,2.35,0,0,1-1-1,3.69,3.69,0,0,1-.44-1.55,4.87,4.87,0,0,1,.14-1.9,2.54,2.54,0,0,1,.83-1.26,2.45,2.45,0,0,1,1.42-.55ZM108.79,50l7.71-1.51.21,1.09-5.23,5.44,6-1.19.2,1L110,56.37l-.21-1.09L115,49.92l-6,1.19Zm-1.94-7.4,7.57-2.06,1.51,5.76-.89.24-1.24-4.65-2.32.63,1.17,4.37-.89.24-1.17-4.4-2.58.7,1.3,4.89-.9.24Zm-2.52-6.55,7.28-3,2.06,5.16-.86.35-1.66-4.14-2.22.95L110.36,39l-.86.35L108,35.75l-3.3,1.35Zm-3.4-6.83,6.86-3.85,2.84,5.22-.81.45-2.33-4.26L105.39,28l2.18,4-.8.45-2.19-4-2.33,1.31,2.42,4.42-.81.46ZM97.8,22.67l1,1.44a4.07,4.07,0,0,0,.85,1,1.71,1.71,0,0,0,.75.37,2.41,2.41,0,0,0,1.16-.08,4.39,4.39,0,0,0,1.36-.7,3.64,3.64,0,0,0,1.31-1.44,2.19,2.19,0,0,0,.14-1.36,4.86,4.86,0,0,0-.67-1.25l-1-1.42Zm-1.38-.36,6.42-4.55,1.62,2.33a8.32,8.32,0,0,1,.74,1.26,3.14,3.14,0,0,1,.22,1.32,3.43,3.43,0,0,1-.54,1.58,4.92,4.92,0,0,1-1.35,1.34,5.2,5.2,0,0,1-1.42.74,3.6,3.6,0,0,1-1.25.2,2.66,2.66,0,0,1-1.93-.78,5.11,5.11,0,0,1-.86-1Zm-7.85-7.45,5-6.08,4.51,3.83-.59.72L93.83,10.2l-1.54,1.86L95.74,15l-.59.71-3.46-2.93L90,14.84l3.83,3.25-.59.72ZM82.5,10.71l1.62.66a4.32,4.32,0,0,0,1.23.34,1.81,1.81,0,0,0,.83-.1,2.46,2.46,0,0,0,.92-.71,4.67,4.67,0,0,0,.77-1.33,3.87,3.87,0,0,0,.32-1.93,2.2,2.2,0,0,0-.62-1.22,4.49,4.49,0,0,0-1.23-.68l-1.59-.65Zm-1.34.46L84.1,3.82l2.58,1.1a7.18,7.18,0,0,1,1.3.65,3,3,0,0,1,.9,1,3.3,3.3,0,0,1,.39,1.63,5,5,0,0,1-.4,1.86,5.43,5.43,0,0,1-.79,1.41,4.11,4.11,0,0,1-1,.86,3,3,0,0,1-1,.38,3.35,3.35,0,0,1-1,0,5.46,5.46,0,0,1-1.27-.37Zm-9.06-.9-.17-7.93H73l.12,7,4-.07v.94ZM65.23,8.78l2.61-.86L66.36,6.1a9.3,9.3,0,0,1-1-1.39,10.42,10.42,0,0,1,0,1.58Zm-1.3,3.83.56-8.52,1.1-.36,5.6,6.5L70,10.61l-1.64-2L65.14,9.67,65,12.24Zm-6.07,4.31-4.28-6.66.93-.61,7,2.87L58.15,7.3,59,6.73l4.27,6.65-.92.61-7-2.87,3.35,5.23Zm-8.3,3.55a3,3,0,0,0,2.21.88,2.68,2.68,0,0,0,1.92-1,2.74,2.74,0,0,0,.69-2.08,3.29,3.29,0,0,0-1.25-2.15,3.92,3.92,0,0,0-1.48-.85,2.49,2.49,0,0,0-1.48,0,2.63,2.63,0,0,0-1.25.84,2.84,2.84,0,0,0-.72,2,3.26,3.26,0,0,0,1.36,2.34Zm-.74.84a4.21,4.21,0,0,1-1.59-2.86,3.81,3.81,0,0,1,1-2.88,3.87,3.87,0,0,1,1.7-1.23,3.41,3.41,0,0,1,2-.09,4.86,4.86,0,0,1,3.18,2.82,3.5,3.5,0,0,1,.15,2,4.16,4.16,0,0,1-.9,1.85,3.9,3.9,0,0,1-1.75,1.22,3.5,3.5,0,0,1-2,.08,4.27,4.27,0,0,1-1.79-.93Zm1.46,4.85-6.35-4.68.63-.88,6.37,4.66Zm-3.92.9.74-.84a3.35,3.35,0,0,1,.73,4.26,4.14,4.14,0,0,1-1.46,1.67,3.27,3.27,0,0,1-1.91.41,5.12,5.12,0,0,1-2.06-.64,4.47,4.47,0,0,1-1.66-1.45,3.15,3.15,0,0,1-.57-1.9,4.24,4.24,0,0,1,.5-2A3.53,3.53,0,0,1,42.17,25a3.06,3.06,0,0,1,2-.23l-.24,1.14a2.45,2.45,0,0,0-1.49.14,2.2,2.2,0,0,0-1,1,2.7,2.7,0,0,0-.36,1.6A2.23,2.23,0,0,0,41.7,30a4.42,4.42,0,0,0,1.23.91,4.63,4.63,0,0,0,1.68.56A2.25,2.25,0,0,0,46,31.17a2.83,2.83,0,0,0,1-1.06,2.5,2.5,0,0,0,.27-1.61,2.68,2.68,0,0,0-1-1.46Zm-5.58,11,1-2.61H37.72A10.2,10.2,0,0,1,39,36.4Zm2.15,3.37-6.2-5.8.41-1.1,8.53-.3-.44,1.16H42.67L41.44,38.6l1.9,1.71Zm-2.07,7.11-7.58-2,.29-1.08,7-2.57-5.94-1.61.26-1,7.58,2-.28,1.08-7,2.51,6,1.61Zm-4.75,8.2L36.54,54l-2.27.51c-.7.15-1.26.26-1.7.32a11.33,11.33,0,0,1,1.41.67Zm2.82,2.86-7.25-4.37.18-1.16L40.13,52l-.2,1.23-2.5.57-.5,3.41,2.21,1.27Zm-.45,8.66-7.83-.42.08-1.64,5.65-1.65,1.18-.33-1.23-.51L31,61.45,31.07,60l7.83.41v1l-6.56-.34,6.43,2.73-.05,1-6.79,2,6.67.36Zm.29,7.59-7.84.41-.31-6h.93l.25,4.86L34.2,75l-.27-4.56h.92l.28,4.48,2.67-.14-.27-5.06h.93Zm.52,5-6.88.73.28,2.7-.92.1-.66-6.46.92-.1.28,2.71,6.88-.73Zm-.86,10.43-.26-1a2.08,2.08,0,0,0,.89-.5,2,2,0,0,0,.46-.92,3.5,3.5,0,0,0,0-1.29,3.27,3.27,0,0,0-.36-1,1.56,1.56,0,0,0-.6-.62,1,1,0,0,0-.7-.11,1,1,0,0,0-.6.33,1.58,1.58,0,0,0-.33.8,11,11,0,0,0-.13,1.52,8.28,8.28,0,0,1-.21,1.65,2.28,2.28,0,0,1-.57,1,1.67,1.67,0,0,1-.91.45A1.89,1.89,0,0,1,34,91.39a2.14,2.14,0,0,1-1-.88,4,4,0,0,1-.53-1.45,4.52,4.52,0,0,1,0-1.64,2.33,2.33,0,0,1,.63-1.2,2.28,2.28,0,0,1,1.15-.62l.25,1a1.54,1.54,0,0,0-1,.76,2.22,2.22,0,0,0-.13,1.48,2.33,2.33,0,0,0,.59,1.36,1,1,0,0,0,.89.3.89.89,0,0,0,.63-.44,4.37,4.37,0,0,0,.27-1.72,11.17,11.17,0,0,1,.22-1.82,2.47,2.47,0,0,1,.61-1.19,1.85,1.85,0,0,1,1-.53,2.06,2.06,0,0,1,1.22.16,2.53,2.53,0,0,1,1,.92,4.07,4.07,0,0,1,.57,1.51,5.06,5.06,0,0,1,0,1.9,2.71,2.71,0,0,1-.72,1.33,2.42,2.42,0,0,1-1.17.69Zm3.37,2L34.18,95.2l-.25-1,7.62-1.92Zm.13,8.74-.41-.94a2.36,2.36,0,0,0,.8-.64,2,2,0,0,0,.31-1,3.44,3.44,0,0,0-.19-1.27,3.18,3.18,0,0,0-.52-1,1.66,1.66,0,0,0-.68-.52,1.23,1.23,0,0,0-.71,0,1,1,0,0,0-.54.43,1.67,1.67,0,0,0-.2.85,12.79,12.79,0,0,0,.11,1.52,8.38,8.38,0,0,1,.05,1.66,2.23,2.23,0,0,1-.41,1.08,1.87,1.87,0,0,1-.83.59,1.91,1.91,0,0,1-1.16,0,2.23,2.23,0,0,1-1.08-.72,4.1,4.1,0,0,1-.74-1.34,4.26,4.26,0,0,1-.25-1.62,2.24,2.24,0,0,1,1.45-2l.41,1a1.58,1.58,0,0,0-.88.91,3,3,0,0,0,.9,2.74,1,1,0,0,0,.93.15.9.9,0,0,0,.55-.53,4.63,4.63,0,0,0,0-1.74,10.9,10.9,0,0,1-.11-1.89,2.42,2.42,0,0,1,.41-1.27,2,2,0,0,1,1-.69,2,2,0,0,1,1.23,0,2.42,2.42,0,0,1,1.17.74,4,4,0,0,1,.8,1.4,5.17,5.17,0,0,1,.31,1.87,2.71,2.71,0,0,1-.5,1.43A2.6,2.6,0,0,1,41.93,102Z"/><path class="cls-2" d="M59.37,126.62l2.06.77a2.29,2.29,0,0,0,1.59.16,1.48,1.48,0,0,0,.82-.91,1.54,1.54,0,0,0,0-1,1.29,1.29,0,0,0-.5-.71,4.68,4.68,0,0,0-1-.44l-2-.76Zm-2.56,3.78,2.86-8,3,1.12a9.54,9.54,0,0,1,1.19.52,2.74,2.74,0,0,1,.85.74,2.25,2.25,0,0,1,.37,1,2.88,2.88,0,0,1-.15,1.17,2.61,2.61,0,0,1-1.27,1.48,3.33,3.33,0,0,1-2.59-.17l-2-.76-1.16,3.23Z"/><polygon class="cls-2" points="65.57 133.64 67.48 125.42 74.15 126.84 73.93 127.82 68.48 126.65 67.89 129.17 73 130.26 72.77 131.23 67.67 130.13 67.02 132.93 72.68 134.15 72.45 135.12 65.57 133.64"/><path class="cls-2" d="M75.72,130.23l2.4-.34a3.47,3.47,0,0,0,1.17-.33,1.3,1.3,0,0,0,.59-.59,1.53,1.53,0,0,0,.11-.79,1.22,1.22,0,0,0-.57-.91,2.09,2.09,0,0,0-1.43-.18l-2.67.38Zm-.44,4.83-1.21-8.36,3.74-.53a5.14,5.14,0,0,1,1.75,0,1.92,1.92,0,0,1,1,.66,2.33,2.33,0,0,1,.53,1.21,2.16,2.16,0,0,1-.36,1.58,3.08,3.08,0,0,1-1.68,1,3,3,0,0,1,.73.33,5.92,5.92,0,0,1,1.15,1l1.8,2.07-1.41.2-1.39-1.57a6.63,6.63,0,0,0-1-1,2.51,2.51,0,0,0-.65-.47,1.33,1.33,0,0,0-.54-.15,3.22,3.22,0,0,0-.63.05l-1.29.18.54,3.71Z"/><path class="cls-2" d="M84.38,123.49l.22-1.78,1.43-.44-.75,1.94Zm3.25-.44,1.17-.36,1.77,4.65a5.47,5.47,0,0,1,.42,2,2.47,2.47,0,0,1-.65,1.5,4.07,4.07,0,0,1-1.9,1.08,4.9,4.9,0,0,1-2.18.23,2.71,2.71,0,0,1-1.56-.78,5.37,5.37,0,0,1-1.11-1.92l-1.76-4.63,1.17-.36,1.76,4.65a4.94,4.94,0,0,0,.8,1.48,1.79,1.79,0,0,0,1,.54,3,3,0,0,0,1.38-.12,2.55,2.55,0,0,0,1.65-1.1,3.08,3.08,0,0,0-.23-2.21Z"/><path class="cls-4" d="M92.15,111.49l-1.78-4.74V105L63.7,62.31,58.93,54.6,47.7,40.38s4.15-3,5.33-5.33-.59-1.78-.59-1.78H50.07a1.65,1.65,0,0,0-.65-1.41,1.82,1.82,0,0,1-.93,1.37,6.43,6.43,0,0,1-1,2.29,1.93,1.93,0,0,1-.56,1.4c-.51.56-.5,1.89-.72,2.61-.36,1.18-.73,2.34-1,3.53a65.46,65.46,0,0,0-2,6.86c-.28,1.83-.43,4.36-1.63,5.85a3.11,3.11,0,0,1-.08.44,3.38,3.38,0,0,1-.08.34v.13a20.15,20.15,0,0,1,2.71,1.45c0,3.55,4.14,8.3,4.14,8.3v3l1.78,1.78c0,1.77,1.78,5.92,1.78,5.92l.58,1.79,1.78,1.78a22.89,22.89,0,0,0,1.19,4.15,32.24,32.24,0,0,0,2.37,3.55l.59,2.37h-.59v1.78h.59v1.78c0,.59,2.37,1.77,2.37,1.77a15.58,15.58,0,0,0,2.37,3h1.82v1.18l4.74,3.56,3,.59.59,1.19c0,.59,3.56,2.37,3.56,2.37v2.37l6.52,3.55h0a5.4,5.4,0,0,1,3.22,1.5,4.59,4.59,0,0,1,1.31,2.64,1.47,1.47,0,0,1-.76,1.65h.13a.62.62,0,0,1,.19-.12,7.68,7.68,0,0,1,2.53-2.1l.08,0v-.06c.1-.19.2-.38.31-.57h0l.06-.18.06-.25v.1a1.72,1.72,0,0,0,0-.64,2,2,0,0,1,1.91-1.91A1.62,1.62,0,0,1,93,114a2.34,2.34,0,0,1,.63.12h.1a.64.64,0,0,1,.1-.13Z"/><path class="cls-5" d="M73.15,22.53v.6a.67.67,0,0,0,.48.55h.14c.22,0,.18.17.26.37s.16.15.32.18v.09c.07.19.2.22.36.3-.06.2,0,.14,0,.21-.08.35,0,0-.1.2a1,1,0,0,0,0,.54.29.29,0,0,0,0,.13h0a6.37,6.37,0,0,1,.17.87l-.64-.18a2.28,2.28,0,0,0-.24.61,12.79,12.79,0,0,1-.78,2.09h0a2.32,2.32,0,0,0-.5.49l-.35.4-.17.2c-.11.15-.2.25-.31.38a6.59,6.59,0,0,1-1.49,1.58L69.15,33a4.32,4.32,0,0,1-1.81,1l-2.61.82h-.12l-.68.37h-.08a6.26,6.26,0,0,0-1.29.41l-1.21,1a.31.31,0,0,1-.07.33,1.85,1.85,0,0,1-.39.3l.32.6c-.13.26,0,.09-.3.14l-.17.06v-.49l-.29-.12c-.19.33-.27.07-.31,1A2.36,2.36,0,0,1,60,39c-.11.42,0,.23-.24.49a1.81,1.81,0,0,0-.54.79L59,41.47c-.64.28.14.78-.66,1.63-.24.26-.61.18-.83.46a1.71,1.71,0,0,0-.21.48c0,.07-.19.33-.37.74l-1.1-.15c-.13-.42-.08-.17-.28-.41h0c-.18-.22-.24-.12-.3-.43,0-.14-.24-.71-.24-.81v-.34c-.48-.25-.09.1-.83-.51-.13.2-.51.2-.73.24l-.06-.16c-.18-.43-.34-.24-.59-.35s.18-.14-.86-.47c-.08.33-.69.72-1,.87l-.19-.11a.78.78,0,0,1,.26-.67l.05,0h0a1.56,1.56,0,0,0,.29-.46c-.62,0-.53.12-.65-.39a.49.49,0,0,1,.14-.5.6.6,0,0,1,.37.09.24.24,0,0,0,.17.06h0c.38,0,0-.11.65-.42A10.31,10.31,0,0,0,52,38.57a4.28,4.28,0,0,1-.09-1.13l-.45-.13c-.16.49-.46.39-.88.39a1.12,1.12,0,0,1-.54.7l-.44.23-.13.08c-.4.25-.3.57-.57.81s-.37.21-.51.36-.17.39-.37.56l-.94.78a3.18,3.18,0,0,0-.11,1c.1.63-.15.44-.18,1l.06.07a4.19,4.19,0,0,1,.4.54c.14.21.29.46.44.65s.18.16.16.32c0,.36-.16.18-.34.19s-.12.18-.31.62c.05.14.06.09.15.19l.06.06a1.22,1.22,0,0,0,.28.32,1.26,1.26,0,0,1,.32.25l.07.09a3.11,3.11,0,0,1,.29.33c.07.12.13.24.19.37a1.27,1.27,0,0,1-.22,1.39,1.3,1.3,0,0,1-.69-.29c0,.29-.06.12-.2.27a1,1,0,0,0,.41,1.35h0c.66.43.92.83,1.17.93l2.35,1.34c1.36,1,.84,1.08,1.16,1.43.09.09,0,0,.14.11l.48.55.08.08c.36.41.15.53.37.81a.84.84,0,0,1,.26.54v.2c0,.11,0,0-.06.16a4,4,0,0,0,.62,1.17l-.16.15c.1.32.24.31.37.69a5,5,0,0,0,.79,1c.18.17.14.22.3.37l.36.37c.11.14.32.63.46.87-.08.18-.15.08-.16.25s.07.16.33.39c.62.53.46.6.33,1.27.39.51.47.46.45.88l-.08.07a.62.62,0,0,0-.09.29h.2a.68.68,0,0,0,.07.44h0c.06.16.06-.06.13-.16l.1.1c-.07.15-.12.14-.26.2.05.27.05.11.09.19l.08.25.21-.14a.37.37,0,0,1,.28-.16c-.11.42-.09,0-.15.26s.15.38.24.49a1.69,1.69,0,0,1,.19.38l.06.43h0c0,.14.08.11.09.32a.28.28,0,0,0,.06.23l.45.64a1.42,1.42,0,0,0,0,.58c0,.39,0,.09.16.49.07.22,0,.49.12.7s.11,0,.23.32,0,0,0,.12c.12.31.27.51.33.68s.36.71.39.8l.08.23a4.21,4.21,0,0,0,.39.64l.06.08c.06.08,0,.13.2.42v.06c.44.91,0,.16.27,1l.16.43c-.12.53,0,0-.22.26a.58.58,0,0,0,0,.32c0,.22.53.4.71.54s.13.11.26.2l.35.27h0c.19.15.13.2.23.44s.08.08.22.25l.06.13h0c.15.44-.11.34,0,.73.07.22.27.45.18.72l-.16.31c0,.29,0,.07.09.14a1.5,1.5,0,0,1,.44.26l-.07.37c.22,0,.59.15.6.39v.28c.08,0,.11-.09.17-.26v.05l.29.39a3.9,3.9,0,0,1-.14.59.87.87,0,0,1,.51.5l.14.38a.91.91,0,0,1,0,.33c0,.3,0,.07.19.15s.09,0,.15.12c.33.34.08.83.32,1.16.08.11.1,0,.22.24a1.49,1.49,0,0,0,.18.3l.19.26a1.79,1.79,0,0,1,.34,2,2.36,2.36,0,0,1-.22.63h0l-.07.09c0-.2.14-.28-.15-.27s-.26.06-.3.25-.08.3.1.45h.22a.76.76,0,0,1,0,.3,2.91,2.91,0,0,0,0,1.1l.17-.26.43.34a.89.89,0,0,1-.13.48c.08.08.07.14.19.21s.3.27.49.41c0,.42,0,.25.13.48s0,.28.21.5l.11.09h0v.06h0l.43.31c.1.08.07.07.16.15s.58.25.75.49,0-.06,0,.18.26.35.45.75,0,0,.67.51l-.21.1c.08.24.22.27.43.39l-.16.16v.16a3.61,3.61,0,0,1,.79.44,1.66,1.66,0,0,1,.62.53h.3c.09.13.21.14.34.23a3.83,3.83,0,0,0,.63.34l.36.13a.49.49,0,0,0,.3.56c.2.11.26,0,.44.09s.14.14.33.21a3.51,3.51,0,0,1,.82.51.31.31,0,0,0,.07.21,1.42,1.42,0,0,0,.35.29,1.9,1.9,0,0,0,.55.37c.2.09.07,0,.18.13l.14.19c.09-.12.36,0,.47,0l.3.17.31.1c.58.19.46.51.58.55h.42a2.07,2.07,0,0,0,.88.57c.83.15.29.54,1.48.76a1.86,1.86,0,0,1,1,.54l.14.19c.23.46.21.28.55.62.1.1.12.07.18.16s-.06-.24,0,.1v.2c.23-.3.8.31.92.48s.13.26.37.32l.3.07.8.35c.15.09.09,0,.18.19l.08.12.08.12c.21.26.19.14.21.49l.08.67c0,.18-.15.31-.23.48a1.22,1.22,0,0,1,.87.48c.28.29.36.36.61.43h.09c.31.11.35.31.51.6l.24.15c.28.24.4.5.69.71a8.81,8.81,0,0,1,1,.83l.18-.11c.2-.1.56,0,.79,0s.24-.09.42-.16.42,0,.64-.2a4.06,4.06,0,0,0,.46-.44l.1-.17a2.13,2.13,0,0,0,.3-.73c-.08-.21-.08,0-.13-.27s.06-.38,0-.52-.1.06,0-.51c.45,0,.4.22.84-.09s.65-.38.68-.81,0-.49-.56-.84a.47.47,0,0,1,.14-.29l.14-.13h0l.15-.1c.23-.14.37,0,.55-.22s.09-.12.12-.34,0-.06.17-.18.18-.3.34-.45l.14-.13.64.19c.17-.18.11-.37.33-.44l.6-.18c0-.25-.09-.32-.06-.58.09-.83.64-.51,1-1.06-.06-.17-.19-.21-.29-.33a2,2,0,0,0-.37-.39.66.66,0,0,1-.74,0c-.2-.14-.32-.18-.36-.44a1.25,1.25,0,0,1,0-.4,10.05,10.05,0,0,1-.4-1.87,4.54,4.54,0,0,1,.34-.64c.07-.15.09-.1.2-.25s0-.19.17-.32l.11-.08c.4-.36,0,0,.48-.36,0-.16-.1-.22-.19-.33-.47-.6-.2.09-.73-1.11a1.54,1.54,0,0,0,.14-.7l.51-.14a2.29,2.29,0,0,1,0-.64l.42-.09v-.43c.33-.06.16-.12.35-.27s.13,0,.24-.1a.5.5,0,0,0,.2-.25s-.2-.45,0-.55l.63-.12c0-.21-.06-.42-.11-.63l-.34-.41a2.36,2.36,0,0,0,0-.65.79.79,0,0,1,0-.48.76.76,0,0,1-.32-.5h.06c.42-.06.08,0,.26-.3s.18-.13.27-.8c0-.23.07-.47.09-.71a4.7,4.7,0,0,1,0-.75c.1-.85,0-.22,0-.58a1.07,1.07,0,0,1,.14-.63l.52-.51h.19c.36,0,.33-.09.19-.57l.18-.13c.27-.31.19-.45,0-.81-.26-.64-.44-1.32-.72-2A14.67,14.67,0,0,0,98.29,78l-1.72-3.58h-.76c-.26-.28-.51-.29-.94-.25a2.46,2.46,0,0,0-.83.36,1.19,1.19,0,0,1-.52.11.85.85,0,0,1-.59,0c-.09,0-.1,0-.23-.19a1.92,1.92,0,0,0-.36-.34l-.32.26a6.2,6.2,0,0,1,0-1.61c0-.59.11-1,.14-1.56a12.69,12.69,0,0,1,.2-2.3c.17-.2.57-.2.34-.65l-.09-.33h0a4,4,0,0,0,.35-.76c-.48,0-.39-.06-.75.32-.15.16-.38.23-.52.4s-.39.21-.57.43a2.73,2.73,0,0,1-.53.49l-.46.16c-.12,0-.13,0-.2.13l-.17.27a1.07,1.07,0,0,1-.69.2h-.21l-3.32-.17c0-.85.37-.47-.34-1.09a3.33,3.33,0,0,0,.07-.54l-.14-.55c0,.05-.32-.23-.35-.24-.26-.13-.63-.07-.85-.19a5.44,5.44,0,0,0-.54-.15h0a9.11,9.11,0,0,0-2.08-.15c.06-.23.12-.14.28-.3s0,0,.09-.14l.43-.34c.18-.43,0-.07.23-.36s.25-.78,0-1L82,64.13c0-.32-.13-.34-.21-.58-.21-.59,0-.29-.54-.5-.13-.06-.23-.24-.31-.36s-.1.16,0-.65c-.4-.18-.2-.18-.39-.31l-.44-.21c0-.85-.2-.33-.19-1s-.6-.88-.64-1l-.09-.3h.35c.17-.67-.2-.47-.5-.79l-.67-.76c.23-.26.38,0,.2-.85.39.23.2,0,.66,0l.52-.14a2.36,2.36,0,0,0-.19-.64l-.21-.4.22-.75c.06-.17.06-.21.19-.32s.15-.2.34-.33l.13-.1c.12-.11,0,0,.12-.15s.16,0,.53-.33l.15-.11c.78-.59.84-.25,1.11-.54h0l.1-.12c.28-.43.19-.38.15-.65l-.12-.91c-.06-.58.14-.44.25-.89a1,1,0,0,1,0-.16l.06-.15c.17-.34-.21.18.13-.17h0l.13-.13a1.94,1.94,0,0,0,.54-1.13c0-.15.08,0,0-.28v-.15c0-.06.32-.86.38-1.05a.82.82,0,0,0,0-.49l.13-.06A2.15,2.15,0,0,1,85,46.46a.41.41,0,0,1,.11-.27.72.72,0,0,1,.57-.13c.13-.51.11-.08.34-.43.07-.11,0-.19.13-.29h0c.16-.14.34,0,.72-.24l.48-.29a1.29,1.29,0,0,1,.46-.25c.36-.11.24-.24.49-.42s1,0,1.06,0c.46,0,.17,0,.38-.16a2.91,2.91,0,0,0,.35-.18l.15.11.21-.15.2.12c.28,0,.3,0,.42-.31l.19.17a1.4,1.4,0,0,1,.54-.1h.73l.09-.19h0l.11-.11.1-.1.08-.08c.14-.17.21-.54.45-.44h0l.18.17a.47.47,0,0,0,.14-.14v-.07l.39.23.17-.31v.27h.09a1.31,1.31,0,0,0,.34-.24.69.69,0,0,0,.55.18c0,.29-.11.27-.08.48v.16a.57.57,0,0,1,.43.34.45.45,0,0,0,.23-.42l.21.07c.1.06.15.18.22.27.34,0,.39-.22.54-.51-.08-.23-.24-.32-.35-.54a.8.8,0,0,0-.5-.47c-.22-.74.32-.39-.9-1.11-.34.14,0,.14-.72.29-.18-.19.06-.13-.33-.23l-.3-.29v-.06c.25-.32.48-.66.7-1a40.67,40.67,0,0,0,2.41-3.53l-.1-.09a.65.65,0,0,1,0-.34l-.19-.12a.17.17,0,0,1-.07.13l-.15.13v-.32h-.26c0-.56-.23-.37-.35-.63s-.48,0-.57,0a.72.72,0,0,0-.08-.32c-.37,0,0,.1-.6-.19l-.12.32V34.4h-.21l.07-.26a.83.83,0,0,1-.4-.19l-.34-.11v-.33a.32.32,0,0,0-.3,0h-.08l-.4.19c-.43-.33-.58.12-.83.34-.07-.16,0-.1-.29-.12s-.16,0-.32.11-.12.12-.2,0,.06,0-.15-.29-.89-.42-1.26-.5c0-.66-.05-.28-.6-.13a2,2,0,0,1-.18.48h-.13l-.09,0h0c-.08.09,0,0-.09.09s-.31-.07-.45-.15a.59.59,0,0,1-.31.39c-.29.17-.41,0-.62.06l-.37.25c-.06-.07-.08-.24-.14-.28s0,0-.22,0a2.8,2.8,0,0,1-1-.22c0,.12,0,.25-.11.19-.41-.18-.6,0-1,.14l-.23-.49h-.2l-.16-.08h-.29c0-.31-.07-.3-.17-.54.27,0,.11,0,.23-.21a.33.33,0,0,1,.44-.17l.14-.11h0l-.14-.2h0v-.12c-.13-.37.14-.22-.11-1.11a2.23,2.23,0,0,1-.44-.29l-.6.15-.61-.25c0-.4.11-.45.3-.74h0c0,.12-.08-.31-.15-.4h0a2.7,2.7,0,0,1-.2-.79h-.34v-.32a1.12,1.12,0,0,1-.45-.07.27.27,0,0,0-.19-.23v.27l-.16-.2-.17-.08c-.09-.08-.11-.33-.14-.45-.24-.06-.14,0-.26-.15s.15-.07-.09-.07,0,0-.15.09v-.43c-.19,0-.22.1-.36.2a1,1,0,0,0-.34-.21l-.3-.09c0-.22.1-.59,0-.77h0l-.19-.14h0a.75.75,0,0,0-.33-.26l.12-.31a1,1,0,0,1-.14-.45,1.32,1.32,0,0,0-.08-.33c-.07-.12,0-.1-.2-.16-.55-.23-.37-.46-.72-.68h-.06l-.59-.32-.35-.77c0,.22,0,.21-.22.19s-.49-.56-.87-.69l-.56-.16-.37.44c-.19.12-.09,0-.28.05h-.07C74,22.73,73.75,22.56,73.15,22.53Z"/><path class="cls-4" d="M41.44,56.71h0l.17-1.21.09-.6.09-.54.1-.62.1-.56.11-.64.13-.66.14-.72.13-.64.11-.51.12-.55.15-.64.13-.55.11-.46.15-.57.16-.61.15-.58.2-.69.19-.69.19-.62.2-.64.19-.62.54-1.62.63-1.71.32-.81.37-.93.21-.49.26-.61.29-.66.18-.4.36-.77.37-.76.39-.79.43-.82.23-.44.13-.23.19.14-.19,1,1,1.45,2.61.95a10,10,0,0,1-1.31,1.92.52.52,0,0,1-.59.4.7.7,0,0,1-.54-.6l0,.88-1.36,1,.19.23-.09.21a.57.57,0,0,1-.14.15l0,0-.13.07-.14.09-.13.12h0V40l-.06.09h-.2l-1.11.19-1.45,6.29L47,54.76Z"/><polygon class="cls-4" points="87.15 119.73 87.18 119.74 87.34 119.63 87.44 119.56 87.51 119.52 87.61 119.45 87.77 119.34 87.94 119.23 88.13 119.1 88.41 118.9 88.63 118.74 88.76 118.64 88.87 118.56 89.09 118.4 89.23 118.29 89.44 118.13 89.62 117.99 89.94 117.73 90.65 117.14 91.28 116.58 91.81 116.08 92.14 115.77 92.67 115.25 93.16 114.73 93.33 114.55 93.73 114.13 93.82 114.02 93.73 113.88 93.3 113.99 92.22 113.72 89.65 113.91 87.05 118.2 86.96 119.13 87.04 119.44 87.15 119.73"/><polygon class="cls-4" points="85.61 120.67 83.16 113.7 81.88 108.17 90.59 113.64 89.3 117.61 88.5 118.85 87.19 119.73 86.86 119.94 86.52 120.14 86.09 120.4 85.81 120.56 85.61 120.67"/><text class="cls-6" transform="translate(0 162.87)">SIN<tspan class="cls-7" x="46.51" y="0">P</tspan><tspan x="62.61" y="0">AD 3.0</tspan></text></svg>