<?xml version="1.0" encoding="utf-8"?>
<!-- Generator: Adobe Illustrator 25.2.3, SVG Export Plug-In . SVG Version: 6.00 Build 0)  -->
<svg version="1.1" id="Capa_1" xmlns="http://www.w3.org/2000/svg" xmlns:xlink="http://www.w3.org/1999/xlink" x="0px" y="0px"
	 viewBox="0 0 1129 446.9" style="enable-background:new 0 0 1129 446.9;" xml:space="preserve">
<style type="text/css">
	.st0{fill:#FE0000;}
</style>
<g>
	<path class="st0" d="M223.8,199.8c-1.7,12.7-3.5,25.4-5.2,38c-1.3,9.3-2.2,18.6-3.9,27.8c-0.6,3.4-2.8,6.6-4.2,9.8
		c-1.3-0.2-2.6-0.4-3.9-0.6c-1.9-28.8-3.8-57.6-5.7-86.4c-0.7,0-1.3,0-2,0c-1.2,20.1-2.3,40.3-3.7,60.4c-2.4,35.6-5,71.1-7.7,106.7
		c-0.3,4-2,8-5.1,11.8c-6.6-29-5.9-58.4-8.1-87.4c-2.2-29.8-3.3-59.7-4.9-89.6c-1.7-29.5-3.5-59.1-6.4-88.7
		c-0.7,9.6-1.7,19.1-2.1,28.7c-4.3,101.5-8.5,202.9-12.8,304.4c-0.2,4.1-1.6,8.1-2.4,12.1c-1.6-0.2-3.1-0.3-4.7-0.4
		c-3.6-116.1-7.3-232.2-10.9-348.3c-0.3,0-0.6,0-1,0c-6.6,88.8-13.1,177.7-19.8,266.5c0,0.6-1.3,1.1-3.3,2.7c-1.1-3.5-2.6-6.2-2.8-9
		c-2.7-45.5-5.1-91.1-7.8-136.7c-0.9-15.3-2.4-30.6-4.5-45.7c-3.3,34.9-6.7,69.9-10,104.8c-1.5,0.1-2.9,0.1-4.4,0.2
		c-4.2-13-3.5-26.9-4.8-40.4c-1.4-14.1-2.4-28.2-3.6-42.3c-0.8-0.2-1.5-0.3-2.2-0.5c-1.8,6-4.2,11.8-5.2,17.9
		c-1.2,7.9-5.2,10.5-12.9,10.2c-13.8-0.5-27.7-0.1-42.2-0.1c0-3.3,0-6.1,0-10.2c13.2,0,26.2-0.3,39.1,0.1c6.7,0.2,9.6-2,11-8.6
		c1.9-9.1,4.7-18.1,7.7-26.9c0.8-2.3,3.8-3.8,5.8-5.7c1.5,2.3,4,4.6,4.2,7c1.6,14.7,2.6,29.4,5.9,44.2c1.2-13.5,2.5-27.1,3.6-40.6
		c1.3-16.9,2.4-33.8,3.6-50.6c0.2-3,0.1-6.2,1-9c0.9-2.8,2.9-5.3,4.5-7.9c1.3,2.6,3.7,5.1,3.9,7.8c1.9,26.5,3.4,53.1,5.1,79.6
		c1.8,29,3.4,57.9,5.2,86.9c0.2,2.5,0.6,5.1,2.4,7.6c1-17.7,1.9-35.5,3.1-53.2c4.8-73,9.8-145.9,14.6-218.9c0.1-1.8-0.2-3.9,0.5-5.4
		c0.8-1.6,2.6-3.8,4-3.9c1.4-0.1,3.3,2.1,4.1,3.7c0.7,1.5,0.4,3.6,0.4,5.4c2.4,87,4.8,174,7.4,261c0.4,14.8,1.6,29.6,2.6,47.1
		c6.1-106.6,8.6-210.8,14.4-314.7c1.5-0.1,3.1-0.3,4.6-0.5c0.9,3.3,2.3,6.5,2.5,9.9c2.3,37.7,4.5,75.4,6.7,113.1
		c3,51.3,6,102.6,9.1,153.8c0.1,1.5,0.3,3,2,4.6c0.6-6.3,1.3-12.5,1.7-18.8c3.6-51.8,7.1-103.7,10.9-155.5c0.1-2.1,2.3-4.1,3.5-6.2
		c1.4,2.3,4,4.6,4.2,7c1.9,28.3,3.4,56.7,5,85.1c0.2,4.4,0.6,8.9,0.9,13.3c0.8,0.1,1.6,0.1,2.4,0.2c2.5-16.9,5.1-33.7,7.6-50.6
		c1.5,0,2.9-0.1,4.4-0.2c2.1,5.7,4.7,11.2,6.2,17.1c5.5,21.2,5.4,21.2,27.1,21.1c190.4-0.9,380.9-1.8,571.3-2.8
		c4.9,0,9.7-2.1,14.6-2.8c1.7-0.2,3.5,1.1,5.3,1.2c3.6,0,7.2-0.4,10.8-0.7c-0.5-5.7,1.2-13.8-1.9-16.7c-4.5-4.1-12.2-6.3-19-0.5
		c-2.2,1.9-7.2,3.3-9.3,2.1c-2.3-1.3-4-6.1-3.6-9c0.8-5.1,2.5-10.6,5.5-14.7c3.3-4.6,9.7-5.2,11.2,1.2c2.3,9.9,10.1,9,16.2,9
		c3,0,6.1-5.8,9.1-9c-0.3-1.1-0.6-2.1-0.9-3.2c-3.6-0.5-7.3-0.6-10.8-1.5c-2.2-0.5-6-2.2-6-3.2c0.1-3.3,1.3-6.8,3-9.7
		c0.3-0.6,5.4,0.1,6.5,1.6c3.8,5.2,8.3,6.6,12.9,2.4c4.8-4.3,7.3-9.5,0.6-15.1c-4.3-3.6-7.7-6.6-14.2-4.9c-6.3,1.6-10.8-2.4-7.7-8.7
		c2.7-5.5,7.3-10.8,12.4-14c5.2-3.2,10.9-0.3,9.7,6.7c-1.5,9.3,5.2,12.2,11,14c3.7,1.2,8.7-2,13.2-3.3c0.1-1,0.1-2.1,0.2-3.2
		c-2.1-1.7-4.4-3.2-6.2-5.2c-1.9-2.1-5-6-4.3-7c1.8-2.6,5.2-4.2,8-6.1c1.1,2.3,1.8,4.8,3.3,6.8c2,2.6,5.4,7.2,6.6,6.8
		c4-1.5,10.5-5.5,10.1-7.5c-1-5.4-3.9-11.5-8.1-15c-6.8-5.8-7.9-11.1-0.3-15.7c3.4-2.1,8-3,12-2.9c6.4,0.1,7,4.3,5.6,12
		c-1,5.5,1,11.8,3.1,17.2c0.5,1.3,7.1,1.4,10.1,0.2c1.4-0.5,1.5-5.6,1.3-8.6c-0.2-2.7-1.6-5.3-2.4-7.9c3.9,0.1,7.8,0,11.7,0.4
		c0.8,0.1,1.5,1.6,0,2.6c-0.3,4-0.6,8-1,12c5.9,0.2,13.6,2.8,17,0c3.1-2.5,3.6-12.2,1.2-16.3c-3.3-5.6-7-9.4,0-14
		c6.3-4.2,20.3-2.1,22,3.7c0.8,2.9-1.8,7.2-3.5,10.4c-2,3.8-5.8,6.8-6.9,10.7c-0.8,3,0.7,7.3,2.5,10.1c0.8,1.3,6.6,1.6,7.1,0.7
		c1.6-2.9,1.9-6.6,3-11.9c2.4,0,6.1-0.4,9.6,0.2c1.5,0.2,3.2,2.4,3.7,4.1c0.3,0.9-1.4,3.1-2.7,3.7c-5.2,2.3-7.7,6.9-3.3,10.2
		c4,3.1,8.5,11.3,15.8,3.8c4.6-4.7,8.5-8.8,5.6-16.5c-2.2-5.8,2.9-10.4,8.8-7.9c5,2.1,9.6,6.1,13,10.4c2.1,2.6,3.1,8.2,1.6,10.7
		c-1.4,2.3-7,3.7-10.2,3c-6.9-1.5-8.6,3.5-10.5,7.5c-1.1,2.4-0.8,6.5,0.6,8.7c3.7,5.8,9,4.7,12.4-1.2c1.2-2.2,4.3-3.3,6.5-4.9
		c2.1,3.7,4.2,7.5,6.3,11.2c-2.5,0.9-5,2.4-7.6,2.6c-10.4,0.9-20.9,2-31.3,1.9c-4.7-0.1-10-1.9-13.9-4.6
		c-30.3-20.7-71.2-16.8-95.1,9.5c-25.7,28.3-26.3,68.5-1.5,97.4c24,28,66,32.7,96.7,10.9c9.1-6.5,30.7-6.5,40.2-1.1
		c4,2.3,9.3,2.4,14.1,3.5c3.6,0.8,9.4,0.4,10.2,2.3c1.4,3.3,0.8,8.4-0.9,11.8c-1.9,3.8-5.6,7.2-9.3,9.5c-2.7,1.7-7.2,2.4-10,1.3
		c-1.8-0.7-1.4-5.9-3-8.4c-2.9-4.4-6.1-9-10.2-11.9c-2.4-1.7-7-0.3-10.6-0.3c-0.4,1.4-0.8,2.8-1.2,4.2c2.5,1.8,5.3,3.3,7.5,5.4
		c2.1,1.9,5.4,6,5,6.4c-2.5,3-5.9,5.2-9,7.7c-1.5-2-4.1-4-4.3-6.2c-0.5-5.6-3.3-8.4-8.1-6.6c-4.6,1.7-12.2,3.2-9.7,10.3
		c1.8,5.1,6.2,10.2,10.8,13.1c8.2,5.1,9.6,9.8,1.6,15.7c-4,2.9-9,5.2-13.9,5.8c-8.2,1.1-11.4-4.4-7.6-11.7c3.7-7,2.9-17-3.5-20.3
		c-3.4-1.8-9.5,0.5-13.9,2.3c-1,0.4,0.1,6.5,0.8,9.9c0.3,1.5,2.1,2.7,4.8,5.8c-5.4,1.5-9.4,3.3-13.4,3.4c-5.6,0.2-7.3-2.8-4.9-8.4
		c1.1-2.6,1.3-6.4,0.3-8.9c-0.6-1.4-5.7-2.7-6.9-1.7c-2.2,1.7-3.5,5.1-4.2,8c-1.2,5.4-0.8,10.2,4.1,14.6c5.7,5.1,4.1,11.2-3.3,12.8
		c-5.2,1.1-11.4,0.4-16.5-1.2c-3-1-6.3-5.1-6.9-8.3c-0.3-1.9,4.1-5.2,7-7c4.5-2.8,9.7-14.3,6.1-17.6c-3.7-3.5-9.9-4.5-15.2-5.7
		c-0.7-0.2-2.7,5.2-4,8.1c-1,2.3-2.1,6.7-2.6,6.6c-3.6-0.5-7-1.9-10.5-3.1c1-2.6,1.9-5.2,3-7.7c1.1-2.5,3.5-5,3.3-7.4
		c-0.2-2-3.1-5.3-4.9-5.4c-2.3-0.1-5.8,1.9-6.8,4c-2.3,4.9-4.4,10.2-4.7,15.5c-0.4,6.3-2.5,11.2-8.7,8.9c-6-2.2-11.8-6.8-16-11.8
		c-3.1-3.6-0.2-9.2,4.8-9.3c11.2-0.1,14.7-7.8,18.4-15.9c-7.5-10.9-7.5-10.9-20.1,5.1c-2.6-2.9-5.7-5.4-7.3-8.5
		c-2.1-4.1-1.4-7.6,4.6-7.9c2.6-0.1,7.3-2.1,7.2-2.8c-0.4-3.6-1.4-7.6-3.5-10.4c-1-1.4-5.2-1.2-7.6-0.5c-6.8,1.9-13.2,4.3-14.4,13
		c-0.2,1.3-6.1,3.3-8.7,2.5c-6.5-1.8-11.8-12.5-10.4-19.3c1.3-6.6,7.8-9.4,14-4.8c8.2,6.2,13.1-1,16.5-4.8c2.4-2.8,0.3-9.8-0.5-14.9
		c-0.1-0.8-3.7-1.6-5.6-1.6c-170.7,0.6-341.4,1.4-512.1,2.1c-33.2,0.1-66.5,0.1-99.7,0.9c-8.3,0.2-12.2-2.9-14.2-10.3
		c-1.3-4.9-2.9-9.7-4.4-14.5C225,199.8,224.4,199.8,223.8,199.8z"/>
	<path class="st0" d="M766.2,437.8c-17.1,0-33.3,0-49.9,0c-0.2-2.9-0.5-6.1-0.9-11c-10.3,12.5-22.8,17-37.5,14.8
		c-15.3-2.2-25.9-11.2-26.6-27.5c-1.9-45.8-2.3-91.6-3.4-138.8c17,0,32.8,0,49.4,0c0.2,2.9,0.5,6.1,0.6,9.3
		c0.6,34.7,1.1,69.5,1.7,104.2c0.1,5.7,0,11.6,1.4,17.1c0.7,2.7,4.8,7,6.6,6.6c3-0.6,6.5-3.9,7.7-6.9c1.4-3.4,0.7-7.7,0.6-11.7
		c-0.6-35.9-1.3-71.9-1.9-107.8c-0.1-3.6,0-7.2,0-12.8c15.5,0,30.5-0.2,45.5,0.3c1.4,0,3.7,4.2,3.8,6.5c0.7,11.5,0.9,22.9,1.1,34.4
		c0.7,37.4,1.3,74.9,2,112.3C766.2,430.3,766.2,433.5,766.2,437.8z"/>
	<path class="st0" d="M353.2,61.4c-16.1,0-30.3,0-45.3,0c-0.5-7.1-0.3-14-1.8-20.6c-0.7-3.2-4.7-5.6-7.3-8.3c-2.8,2.6-7.1,4.8-8.1,8
		c-4,13,0.5,23.5,11.9,31.1c12.1,8,24.1,16,35.9,24.5c9.1,6.6,15.4,15.8,16.2,27.2c1,14.1,1.7,28.3,1,42.4
		c-0.7,13.6-9.3,22.7-21.5,28c-22.2,9.6-44.6,9.6-66.6-0.9c-11.6-5.6-19.2-14.7-20.7-27.8c-1.3-11.6-2.1-23.3-3.2-36.6
		c15.6,0,29.6-0.2,43.6,0.3c1.2,0,3.1,4,3.2,6.2c0.5,7.5,0.2,15.1,0.4,22.6c0.1,5.7,1.9,10.5,8.5,10.7c6.7,0.2,9.5-4.3,10.3-10.4
		c1.8-15.4-0.8-28.6-15.8-37.3c-10.2-5.8-19.5-13.2-29.2-19.8C251.8,92,244.9,79.6,244,64.3c-0.5-8.7-0.4-17.5,0.3-26.2
		c1.3-16.3,9.9-27.8,25.4-33.2c20.7-7.2,41.5-6.5,61.9,2.1c11.9,5,18.9,13.9,20.3,26.7C352.7,42.6,352.7,51.6,353.2,61.4z"/>
	<path class="st0" d="M303.5,444.6c-1.2-66.3-2.4-132.4-3.6-197.7c1.3-1.1,1.7-1.8,2.2-1.8c25.6,0,51.3-1.4,76.8,0.4
		c21.2,1.5,31,12.1,32.9,33.1c1.6,17.7,1.7,35.6,0.8,53.3c-0.9,16.9-8.6,25-25.2,28.7c-7.3,1.6-15,2.5-22.4,2.3
		c-8.5-0.2-11.6,2.2-11.2,11.2c0.9,20.5,0.5,41.1,1.1,61.6c0.2,6.4-1.2,9.3-8.4,9.1C332.8,444.2,318.9,444.6,303.5,444.6z
		 M353,278.5c0,14.3-0.1,28.7,0,43c0.1,7.7,5.6,10.6,11.8,5.8c2.5-1.9,4.5-5.9,4.7-9.1c0.5-9.3,0.5-18.7-0.1-28
		C368.8,279.7,365.2,277.3,353,278.5z"/>
	<path class="st0" d="M542.6,362.2c-23,0-43.7,0-64.3,0c0,16.7-0.4,32,0.4,47.2c0.1,2.5,5.4,7.1,7.3,6.7c3.2-0.8,7.8-4.7,8-7.6
		c0.9-11,0.4-22.2,0.4-35.1c15.2,0,29.3-0.1,43.3,0.2c1.4,0,3.6,2.1,4,3.6c6.2,21.7-3.2,48-21.2,59.6c-19.8,12.8-58,11.8-75.4-3.6
		c-6.8-6-14-15.6-14.6-23.9c-2-32.4-2.1-65-1.5-97.5c0.2-13.1,8.8-23.1,20.5-29.1c21.9-11,44.3-11,66.2-0.3
		c13.3,6.5,21.2,18.3,23.2,32.7C541.2,329.9,541.4,345,542.6,362.2z M491.6,322.9c-0.4-4.3,0.1-8.8-1.3-12.6c-1-2.7-4.6-6.2-7-6.2
		c-2.3,0-6.1,3.8-6.6,6.5c-1.1,5.8-0.2,12-0.6,18c-0.4,6,2.1,7.6,7.9,7.7C495.6,336.4,490.2,327.9,491.6,322.9z"/>
	<path class="st0" d="M621.6,13.1c25.9,0,51.2,0,78.2,0c0,11,0.2,21.7-0.3,32.4c-0.1,1.3-3.8,3.2-6,3.4c-6.3,0.5-12.7-0.3-19,0.5
		c-2.3,0.3-6,3.2-6.1,5.2c-0.6,9.6-0.3,19.2-0.3,30.4c8,0,15.1,0.3,22.3-0.1c6-0.3,8,2,7.8,7.9c-0.3,8.4-0.1,16.9-0.1,26.9
		c-7.8,0-14.9,0.2-22-0.1c-5.6-0.3-8.3,1.2-8.1,7.5c0.4,10.8,0.1,21.6,0.1,33.7c10.1,0,19.1,0.2,28-0.1c5.5-0.2,7.5,2,7.3,7.5
		c-0.3,9.3-0.1,18.6-0.1,29.1c-5,0-8.8,0-12.7,0c-20.8,0-41.7,0-62.6,0c-4.2,0-7.8,0-7.8-5.9c0.1-58.3,0.2-116.7,0.3-175
		C620.6,15.5,621.1,14.7,621.6,13.1z"/>
	<path class="st0" d="M708.2,197.2c6.2-24.8,12.1-47.8,17.5-70.9c1.2-5,1.1-10.8-0.2-15.9c-5.2-21-11.2-41.8-17.2-64.2
		c12.1,0,23.2-0.4,34.2,0.4c2,0.1,4.7,4.8,5.3,7.7c2.9,12.6,5.1,25.3,9.8,38c2.1-11.4,4.6-22.7,6.2-34.1c1.2-9,4.6-13.3,14.5-12.2
		c8.9,1,18,0.2,28.6,0.2c-3.5,14.5-6.7,27.9-10,41.2c-2.2,8.8-4.8,17.5-6.7,26.3c-0.7,3.3-0.5,7.2,0.5,10.5
		c6.1,22.1,12.4,44.1,18.7,66.2c0.5,1.7,0.5,3.4,1,6.7c-13.8,0-27,0.3-40-0.3c-1.9-0.1-4.5-4.4-5.1-7.1c-2.8-12.3-5.1-24.7-9.6-37.3
		c-2.3,11.4-5.3,22.8-6.8,34.4c-1.1,8.3-4.3,11.3-12.7,10.6C727.2,196.6,718.4,197.2,708.2,197.2z"/>
	<path class="st0" d="M606.6,276.4c0,5.8,0,10.8,0,17.7c8-10.8,15.1-20.2,29.6-21.3c0,18.7,0,37.2,0,56.2c0.2-0.2-0.2,0.4-0.7,0.5
		c-22.9,3.3-26.6,7.1-26.6,30.2c0,23,0.7,45.9,1.1,68.9c0.1,3.5,0,7.1,0,12.3c-15.7,0-30.4,0.2-45.1-0.3c-1.7,0-4.5-3.7-4.6-5.8
		c-1.1-50.8-1.9-101.5-2.5-152.3c0-2.1,3.4-5.9,5.3-6C577.2,276.1,591.4,276.4,606.6,276.4z"/>
	<path class="st0" d="M372.4,196.3c-0.2-4.6-0.5-7.6-0.5-10.5c0-45.6,0.1-91.2-0.1-136.9c0-7.3,1.9-10.3,9.6-9.9
		c10.5,0.6,21.1,0.3,31.7,0.1c5.5-0.1,8.2,1.2,8.2,7.5c-0.2,47.4,0,94.9-0.3,142.3c0,2.5-3.2,7-5.1,7
		C401.6,196.6,387.5,196.3,372.4,196.3z"/>
	<path class="st0" d="M1022.5,206.6c0,7.8,0.5,15.7-0.1,23.5c-1.1,14-9.5,21.4-23.9,21.7c-15.6,0.3-25.8-7-26.6-21
		c-0.9-16.2-1-32.6,0.2-48.8c1-14.7,11-22,26-21.4c15.1,0.6,23.5,8.4,24.4,23.4C1023,191.5,1022.6,199.1,1022.5,206.6
		C1022.6,206.6,1022.5,206.6,1022.5,206.6z M1001.2,206.3c0-8.1,0.3-16.3-0.2-24.4c-0.2-2.6-2.6-5.1-4-7.6c-1.3,2.4-3.7,4.7-3.8,7.1
		c-0.3,16.6-0.3,33.2,0,49.8c0,2.3,2.6,4.5,4,6.8c1.3-2.4,3.6-4.7,3.8-7.2C1001.5,222.6,1001.2,214.4,1001.2,206.3z"/>
	<path class="st0" d="M483.1,85.9c-0.9-0.1-1.6-0.4-2.4-0.7c-0.3,0.2-0.6,0.5-1,0.7c0,0,0,0.1,0,0.1c-0.5,31.9-0.5,63.8-0.2,95.7
		c0.8,1.2,1.2,2.7,1.4,4.1c0.7,0,1.4,0.1,2,0.3c-0.3-32-0.3-64,0-96C482.9,88.8,483,87.4,483.1,85.9z"/>
	<path class="st0" d="M601.3,71.1c-0.2-11.8-5.7-21-17.2-25.2c-12.2-4.4-23.8-3.1-34,5.5c-2.9,2.4-5.5,5.2-8.8,8.3
		c-7.3-9.7-15.8-15.6-27.7-16.1c-12.1-0.4-21.1,5.3-29.7,14.3c-0.5-4.5-0.8-7.7-1.2-11.1h-43.8v150.5c0.8,0,1.5,0,2.3,0
		c-0.5-1.4-0.7-3-0.6-4.5c-1.1-2.6-1.1-5.8,0.1-8.4c0.1-0.4,0.3-0.7,0.4-1.1c0-0.3,0-0.7,0-1c0.4-36.9,0.2-73.7,0.2-110.5
		c0-3.7,0-6.8,0.1-9.4c-0.2-0.4-0.3-0.9-0.4-1.3c-3.2-5.3-0.8-14.2,7.4-14.2c2,0,3.6,0.5,4.9,1.4c0.7,0.4,1.4,0.8,1.9,1.3
		c2.4-0.1,5.2-0.1,8.5-0.1c1.4,0,2.6,0,3.8,0c1.1-0.7,2.4-1.2,3.9-1.4c0.9-0.3,1.9-0.5,3-0.5c9.3,0,11.2,11.4,5.7,16.1
		c0,0.1,0,0.3,0,0.4c0,0.4,0.8,0.7,1.2,1c25.5-24.9,38.4-25,58.3-0.4c4.9-3.9,9.5-8.3,14.8-11.7c18.7-12.1,37.2-4.8,42.7,16.7
		c0.7,2.6,0.8,5.4,0.8,8.1c0,35.9,0,71.9,0,107.8c0,2.6-0.4,5.2-0.6,8.2h-35.5c0-3.9,0-7.1,0-10.4c0-30.8,0-61.6-0.1-92.4
		c0-4.8,0.1-9.7-0.7-14.5c-1.4-8-8.3-10.5-15.3-5.9c0.1,0.1,0.2,0.2,0.3,0.2c9.8-1,11.9,0.8,12,12.7c0.3,34.4,0.2,68.9,0.3,103.3
		c0,3.2,0,6.4,0,10.3c14,0,26.7,0.2,39.3-0.2c1.8-0.1,5.1-3.4,5.1-5.2C602.3,151.4,602,111.3,601.3,71.1z"/>
	<path class="st0" d="M962.1,236.1c0,4.8,0,8.6,0,13.2c-15.4,0-30.6,0-48.2,0c1.7-6.2,2.3-12.4,4.9-17.6c7-13.4,15.1-26.1,22.2-39.5
		c2-3.8,2.8-8.6,2.9-13c0.1-1.7-3-3.6-4.7-5.4c-1.5,1.6-3,3.2-4.5,4.8c-0.2,0.2-0.1,0.6-0.2,0.9c-3,13.4-3,13.4-18.8,11.1
		c-1.8-9.9-0.8-19,7.9-25.8c7.6-5.9,22.2-5.8,30.9-0.4c9.3,5.9,12.2,15.2,9,24.5c-4,11.5-10.6,22.1-16.3,33c-2,3.9-4.7,7.5-8,12.8
		C947.6,235.4,954.3,235.8,962.1,236.1z"/>
	<path class="st0" d="M1054.8,235.6c5.8,0,8.9,0,12.1,0c13,0.1,13.1,0.1,10.8,13.9c-15.1,0-30.4,0-48.1,0c2.2-7.1,3.2-13.6,6-19.1
		c5.9-11.2,13-21.8,19.1-32.9c2.6-4.7,4.6-10,5.3-15.2c0.4-2.5-2.8-5.6-4.4-8.4c-1.8,2.4-4.3,4.5-5.2,7.1c-1.1,3-0.7,6.4-0.9,10.1
		c-6.1,0-11.4,0-16.7,0c-3.1-11.5-0.9-20.8,6.9-26.1c9.7-6.6,20-6,30.1-1c8.8,4.4,13.3,13,10.3,23.8c-2.8,10-8.3,19.2-13.1,28.5
		C1064,222.3,1059.9,227.7,1054.8,235.6z"/>
	<path class="st0" d="M1120.9,249.7c-7.5,0-13.5,0-21,0c0-7.8,0-15.5,0-23.2c0-7.5,0-15.1,0-22.6c-0.1-15.7-0.1-15.7-15-18.7
		c-2-5.3-0.8-8.6,5.1-10.9c5.5-2.1,10.2-6.2,15.6-8.7c3.8-1.7,8.3-2.9,12.4-2.7c1.1,0,2.8,5.9,2.8,9.1
		C1121,197.6,1120.9,223.2,1120.9,249.7z"/>
	<path class="st0" d="M373.7,28.6c-1-1.7-1.2-1.9-1.3-2.2C369.4,4,369.4,4,391.7,4c9.3,0,18.6,0,29.3,0c0,7.2,0.4,13.8-0.2,20.2
		c-0.1,1.6-3.3,4.2-5.1,4.3C401.6,28.8,387.5,28.6,373.7,28.6z"/>
	<path class="st0" d="M682.5,263.5c7.5-12,13.3-21.7,19.6-31.2c1.1-1.6,3.9-3,6-3c11.9-0.3,23.8-0.1,38.5-0.1
		c-14,11.8-25.5,23.2-38.7,31.9C702.1,264.8,692.6,262.8,682.5,263.5z"/>
	<path class="st0" d="M542.4,93.6c-0.3,0-0.5,0-0.8,0c-0.8,0-1.5-0.1-2.1-0.2c-0.3,29.9-0.2,59.7-0.2,89.6c0,3.5,0,7,0,10.6h-38.5
		c-0.2-4.2-0.5-7.8-0.5-11.4c0-32.1,0.2-64.3-0.2-96.4c0,0-0.1,0-0.2,0c-0.2,0-0.5,0-0.7,0c-0.4,0.1-0.8,0.2-1.3,0.2
		c0.1,1.4,0.2,2.8,0.2,4.2c0.3,32.3,0.1,64.5,0.2,96.8c0,3.2,0.3,6.3,0.5,9.5h43.3c0-4.3,0-7.8,0-11.4c0-29.5-0.2-59.1,0.1-88.7
		C542.3,95.5,542.3,94.5,542.4,93.6z"/>
	<polygon class="st0" points="441.4,62.3 441.4,48 439.6,52.6 439.2,57 	"/>
	<polygon class="st0" points="455.1,49.4 440.3,49.4 440.3,48 446.6,47 447.8,46.8 449.8,46.8 454.2,48 	"/>
	<polygon class="st0" points="453.9,49.4 481.9,49.4 481.6,46.8 457.6,47.1 	"/>
	<polygon class="st0" points="480,63.6 480,48.1 481.9,48.1 482.8,52.8 483.1,55.3 483.1,57.7 483.1,59 483.7,60.2 480.6,63.9 	"/>
	<polyline class="st0" points="480,63.8 480,66 482.1,64.2 482.1,63 480.1,63.7 	"/>
	<polygon class="st0" points="441.1,183 441.1,197.2 439.8,196.8 439.4,190.5 439.5,184.6 	"/>
	<polygon class="st0" points="482.9,186.2 482.9,197.2 479.4,197.2 479.4,163.9 480.7,169.2 	"/>
	<polygon class="st0" points="441.1,197.2 479.4,197.2 479.4,194.2 440.6,194.2 	"/>
	<polygon class="st0" points="498.3,185.8 498.3,196.5 499.8,196.5 499.5,185.7 	"/>
	<polygon class="st0" points="602.4,190 602.4,196.5 597.3,196.9 601,190 	"/>
	<path class="st0" d="M542.4,93.6L542,81.5c0,0,0.5-10.1,4.8-10.9l-1.9-1.7c0,0-6.4-1.9-5.5,24.5l1.6,1.4L542.4,93.6z"/>
	<path class="st0" d="M554.2,68.4c0,0-7.5-1.5-10.5,0.8l0.9,1.2l8.5-0.8L554.2,68.4z"/>
	<polygon class="st0" points="479.7,89.5 479.7,72.9 483.1,72.9 483.1,86.8 	"/>
	<polygon class="st0" points="500,87.1 500,72.9 497.9,72.9 497.9,86.4 	"/>
	<path class="st0" d="M483.1,72.9c0.6-1.1,1.7-2.4,3.4-3.2c3.4-1.5,8-0.2,11.3,3.5c0.7-0.1,1.4-0.2,2.2-0.3c-0.6-0.9-1.5-2-2.9-3.2
		c-0.6-0.6-1.9-1.6-3.4-2.2c-3.2-1.4-7.4-0.8-10.4,1.2c-2,1.3-3.1,3-3.7,4.2H483.1z"/>
</g>
</svg>
